<svg width="5497" height="4947" viewBox="0 0 5497 4947" fill="none" xmlns="http://www.w3.org/2000/svg">
<path d="M513.028 3410.85C306.193 2864.6 249.758 2257.75 418.98 1698.17C753.724 591.21 2260.25 -137.748 3542.32 21.8962C4065.49 87.0343 4597.66 345.192 4826.66 770.19C5114.97 1305.28 4747.51 1786.73 4245.17 2101.89C3821.07 2367.95 3297.45 2497.56 2901.43 2799.53C2627.43 3008.45 2435.74 3303.09 2401.28 3619.66C2368.62 3919.74 2671.99 4328.5 2468.24 4596.73C2285.32 4837.52 1787.59 4738.54 1533.72 4638.7C1233.59 4520.65 991.213 4221.53 823.602 3988.73C693.468 3807.97 589.621 3613.14 513.028 3410.85Z" fill="#BECFF4"/>
<path d="M3631.96 237.74H3542.31H2508.46H2418.81H1384.94H1295.3H171.801V3104.83H1295.3H1384.94H2418.81H2508.46H3542.31H3631.96H4755.45V237.74H3631.96ZM259.38 3021.33V321.251H1295.3V3021.33H259.38ZM1384.94 3021.33V321.251H2418.81V3021.33H1384.94ZM2508.46 3021.33V321.251H3542.31V3021.33H2508.46ZM4667.88 3021.33H3631.96V321.251H4667.88V3021.33Z" fill="white"/>
<path d="M5169.55 2805.4H2151.24V4328.31H5169.55V2805.4Z" fill="#8FA5CC"/>
<path d="M4697.52 2805.4H1920.04V4328.31H4697.52V2805.4Z" fill="#BECFF4"/>
<path d="M4604.4 2872.2H3336.45V4246.84H4604.4V2872.2Z" fill="#8FA5CC"/>
<path d="M3452.28 3362.13V3756.89H3498.52V3362.13H3452.28Z" fill="#BECFF4"/>
<path d="M3257.75 2872.2H1989.8V4246.84H3257.75V2872.2Z" fill="#8FA5CC"/>
<path d="M3082.36 3362.13V3756.88H3128.6V3362.13H3082.36Z" fill="#BECFF4"/>
<path d="M4349.96 2578.61C4188.16 2442.69 4196.36 2171.39 4196.36 2171.39C4293.27 2250.04 4344.24 2336.31 4370.64 2411.39C4377.45 2313.74 4408.43 2241.61 4408.43 2241.61C4443.82 2320 4454.08 2389.64 4452.39 2447.23C4489.77 2381.79 4540.5 2343.04 4540.5 2343.04C4546.37 2460.86 4501.93 2536.46 4464.6 2578.61H4541.03L4514.19 2774.3H4541.03L4518.96 2805.4H4287.71L4265.64 2774.3H4292.49L4265.64 2578.61H4349.96Z" fill="#8FA5CC"/>
<path d="M3342.85 2805.4H3256.2L3118.8 2521.18H3205.45L3342.85 2805.4Z" fill="#8FA5CC"/>
<path d="M3150.64 2805.4H2672.91L2818.45 2287.08H3296.18L3150.64 2805.4Z" fill="#8FA5CC"/>
<path d="M3127.47 2769.22H2716.39L2841.62 2323.24H3252.7L3127.47 2769.22Z" fill="#BECFF4"/>
<path d="M2749.91 2746.79L2791.85 2597.44L2931.74 2483.04L2972.33 2556.13L3127.06 2420.54L3167.52 2529.65L3106.54 2746.79H2749.91Z" fill="#8FA5CC"/>
<path d="M4887.85 4445.92C4895.74 4425.5 4911.68 4408.74 4920.73 4388.76C4938.16 4350.29 4927.94 4306.23 4919.8 4265.04C4911.67 4223.86 4907.04 4177.49 4932.84 4143.55C4953.49 4116.37 4989.38 4103.38 5012.66 4078.2C5041.94 4046.56 5046.81 4001.37 5051.6 3959.42C5056.39 3917.47 5064.43 3871.94 5097.32 3843.72C5129.05 3816.49 5177.52 3811.51 5206.97 3782.04C5233.23 3755.75 5238.59 3715.61 5262.98 3687.74C5282.4 3665.53 5311.61 3653.64 5340 3643.47C5370.19 3632.66 5402.34 3622.76 5434.16 3627.74C5465.98 3632.74 5496.68 3657.49 5496.23 3688.24C5495.82 3715.9 5471.62 3737.94 5446.44 3751.68C5421.26 3765.44 5392.77 3774.84 5372.11 3794.26C5340.6 3823.86 5334.36 3869.31 5327.89 3911.04C5321.42 3952.76 5310.16 3998.58 5273.68 4022.45C5246.43 4040.26 5209.8 4042.17 5184.19 4062.08C5150.93 4087.94 5147.23 4134.47 5148.3 4175.37C5149.35 4216.28 5151.07 4261.48 5123.65 4292.97C5097.1 4323.46 5050.89 4331.5 5020.46 4358.48C4986.66 4388.44 4977.66 4433.89 4953.86 4470.09C4944.18 4484.8 4929.28 4505.08 4908.07 4501.32C4882.44 4496.75 4880.57 4464.82 4887.85 4445.92Z" fill="#FFD26E"/>
<path d="M4874.89 4466.4C4858.1 4447.68 4854.28 4421.44 4854.25 4396.8C4854.22 4372.17 4857.23 4347.14 4851.26 4323.17C4840.74 4280.84 4803.81 4247.75 4793.97 4205.28C4779.53 4142.93 4826.7 4082.76 4831.38 4019.05C4836.15 3954.14 4796.53 3888.36 4816.23 3826.05C4825.75 3795.9 4848.3 3770.67 4857.68 3740.48C4875.84 3681.98 4841.31 3620.72 4841.37 3559.72C4841.41 3516.41 4859.87 3473.38 4891.67 3442.48C4923.47 3411.56 4968.24 3393.12 5013.65 3392.25C5066.25 3391.22 5122.58 3418.15 5139.34 3465.7C5156.25 3513.68 5129.67 3565.38 5098.81 3606.57C5067.96 3647.77 5030.75 3688.16 5022.89 3738.21C5014.59 3791.03 5040.49 3848.19 5017.29 3896.8C5002.47 3927.85 4970.23 3948.58 4953.83 3978.9C4919.35 4042.62 4965.41 4119.49 4957.17 4190.76C4952.43 4231.63 4929.87 4268.9 4922.83 4309.47C4913.66 4362.28 4939.4 4402.59 4944.6 4452.59C4948.85 4493.33 4896.97 4491.01 4874.89 4466.4Z" fill="#D8AC55"/>
<path d="M4927.73 4432.64C4920.19 4418.26 4907.19 4407.31 4896.29 4395.05C4872.35 4368.1 4858.03 4333.51 4856.24 4298.24C4854.47 4263.43 4864.08 4226.33 4848.01 4195.04C4832.93 4165.65 4798.61 4148.97 4782.03 4120.31C4753.58 4071.13 4786.63 4006.31 4762.82 3954.94C4746.57 3919.88 4707.6 3899.42 4685.75 3867.23C4663.25 3834.06 4661.27 3792.5 4656.18 3753.3C4649.67 3703.15 4636.35 3652.41 4605.72 3611.18C4575.1 3569.94 4524.5 3539.6 4471.59 3542.4C4418.66 3545.2 4368.01 3587.84 4368.64 3638.36C4369.12 3677.33 4397.06 3710.77 4426.11 3738.2C4455.16 3765.63 4487.84 3791.99 4502.67 3828.31C4521.69 3874.95 4507.43 3928.85 4523.86 3976.37C4540.02 4023.1 4582.73 4056.01 4621.76 4088.2C4660.78 4120.39 4700.41 4158.76 4706.2 4207.65C4709.28 4233.73 4702.38 4261.23 4712.26 4285.72C4720.68 4306.58 4739.79 4321.47 4757.45 4336.16C4799.33 4371 4838.24 4410.23 4870.34 4453.58C4880.67 4467.52 4890.05 4488.32 4911.36 4483.46C4935.08 4478.06 4936.74 4449.78 4927.73 4432.64Z" fill="#FFD26E"/>
<path d="M5160.64 4904.56H4632.62L4559.28 4369.86H5233.98L5160.64 4904.56Z" fill="#2B4172"/>
<path d="M5179.91 4925.44H4613.35L4559.28 4849.26H5233.98L5179.91 4925.44Z" fill="black"/>
<path d="M396.201 4165.83C396.201 4165.83 165.891 4030.9 182.965 3688.51C182.965 3688.51 440.885 3885.13 396.201 4173.97" fill="#FFD26E"/>
<path d="M418.611 4167.19C418.611 4167.19 234.185 3903.32 409.835 3514.28C409.835 3514.28 555.132 3851.64 418.611 4167.19Z" fill="#D8AC55"/>
<path d="M433.487 4146.91C433.487 4146.91 360.156 3729.68 774.128 3393.63C774.128 3393.63 790.696 3941.67 433.487 4146.91Z" fill="#FFD26E"/>
<path d="M603.733 4468.11H233.49L182.064 4093.17H655.172L603.733 4468.11Z" fill="#2B4172"/>
<path d="M617.244 4482.76H219.979L182.064 4429.33H655.172L617.244 4482.76Z" fill="black"/>
<path d="M4528.91 4666.54L2818.46 4946.57L65.4146 4891.88C-28.1561 4805.17 -17.7972 4722.64 73.8764 4643.45L2718.01 4569.95L2825.9 4558.96L4528.91 4386.52C4613.58 4484.22 4613.88 4577.62 4528.91 4666.54Z" fill="#2B4172"/>
<path d="M4528.91 4666.54L2818.46 4946.57C2912.18 4758.26 2768.69 4666.54 2768.69 4666.54L2825.91 4558.96L4528.92 4386.52C4613.58 4484.22 4613.88 4577.62 4528.91 4666.54Z" fill="#1E3356"/>
<path d="M2547.94 4861.94C2671.8 4861.94 2772.21 4836.22 2772.21 4804.49C2772.21 4772.77 2671.8 4747.05 2547.94 4747.05C2424.09 4747.05 2323.68 4772.77 2323.68 4804.49C2323.68 4836.22 2424.09 4861.94 2547.94 4861.94Z" fill="#1E3356"/>
<path d="M311.938 4823.65C435.803 4823.65 536.215 4797.93 536.215 4766.2C536.215 4734.47 435.803 4708.75 311.938 4708.75C188.073 4708.75 87.6602 4734.47 87.6602 4766.2C87.6602 4797.93 188.073 4823.65 311.938 4823.65Z" fill="#1E3356"/>
<path d="M4528.97 4386.48L2768.63 4666.53L73.8633 4643.42L1845.63 4361.68L4528.97 4386.48Z" fill="black"/>
<path d="M2705.16 2078.01V2027.29L3592.79 1835.81L4926.71 1867.73V1949.88L3581.63 1986.86L2705.16 2078.01Z" fill="#2B4172"/>
<path d="M4926.71 1949.88L4048.91 2089.54L2705.16 2078.01L3588.66 1937.52L4926.71 1949.88Z" fill="#1E3356"/>
<path d="M3882.88 2009.11H3748.98V4572.05H3882.88V2009.11Z" fill="#1E3356"/>
<path d="M2447.78 2295.94C2447.78 2295.94 2402.74 3202.94 2154.15 3469.23C1905.55 3735.51 1246.44 4179.81 1246.44 4179.81L1126.33 4033.56L1895.42 3316.49L2020.14 2255.95L2447.78 2295.94Z" fill="#D8AC55"/>
<path d="M975.148 4140.23L1021.52 4107.54L1126.31 4033.56L1246.43 4179.81C1246.43 4179.81 1299.4 4401.69 1286.21 4495.51C1283.81 4512.63 1279.28 4525.33 1271.71 4531.85C1223.15 4573.87 975.148 4140.23 975.148 4140.23Z" fill="#2B4172"/>
<path d="M975.148 4140.23L1021.52 4107.54L1098.36 4219.7L1107.02 4273.3C1107.02 4273.3 1238.36 4501.9 1286.23 4495.5C1283.83 4512.62 1279.29 4525.32 1271.72 4531.84C1223.15 4573.87 975.148 4140.23 975.148 4140.23Z" fill="#1E3356"/>
<path d="M1252.87 4267.51C1254.25 4266.49 1255.42 4264.66 1255.57 4262.97C1255.9 4259.33 1253.35 4255.58 1249.31 4255.2C1242.51 4254.58 1235.72 4253.94 1228.92 4253.32C1227.01 4253.14 1225 4253.59 1223.47 4254.75C1222.1 4255.78 1220.92 4257.6 1220.77 4259.29C1220.44 4262.93 1223 4266.68 1227.04 4267.06L1247.43 4268.95C1249.35 4269.11 1251.34 4268.66 1252.87 4267.51Z" fill="white"/>
<path d="M1258.37 4292.44C1259.42 4291.1 1260.08 4289.06 1259.77 4287.4C1259.44 4285.6 1258.54 4283.81 1256.91 4282.75C1255.27 4281.68 1253.6 4281.33 1251.62 4281.42C1246.09 4281.67 1240.58 4281.93 1235.05 4282.18C1233.26 4282.26 1231.21 4283.57 1230.18 4284.9C1229.14 4286.23 1228.48 4288.28 1228.78 4289.95C1229.11 4291.74 1230.01 4293.54 1231.64 4294.59C1233.27 4295.66 1234.95 4296.01 1236.93 4295.92C1242.46 4295.67 1247.97 4295.41 1253.5 4295.16C1255.3 4295.09 1257.34 4293.77 1258.37 4292.44Z" fill="white"/>
<path d="M1262.99 4320.88C1264.04 4319.55 1264.68 4317.49 1264.38 4315.83C1264.05 4314.03 1263.15 4312.24 1261.53 4311.18C1259.93 4310.14 1258.17 4309.69 1256.23 4309.85C1251.19 4310.32 1246.16 4310.78 1241.12 4311.25C1239.28 4311.42 1237.34 4312.57 1236.25 4313.97C1235.2 4315.29 1234.56 4317.35 1234.86 4319.01C1235.18 4320.81 1236.09 4322.61 1237.71 4323.66C1239.31 4324.7 1241.07 4325.16 1243.01 4324.99C1248.04 4324.52 1253.08 4324.06 1258.11 4323.6C1259.94 4323.41 1261.89 4322.26 1262.99 4320.88Z" fill="white"/>
<path d="M2864.48 4509.72L2850.9 4456.28L2820.1 4335.48L3008.13 4286.76C3008.13 4286.76 3243.16 4326.42 3328.7 4374.45C3344.33 4383.22 3354.84 4392.12 3358.2 4401.3C3379.94 4460.3 2864.48 4509.72 2864.48 4509.72Z" fill="#2B4172"/>
<path d="M2864.48 4509.72L2850.9 4456.28L2989.14 4432.34L3044.32 4445.56C3044.32 4445.56 3316.28 4418.98 3328.69 4374.44C3344.32 4383.21 3354.83 4392.11 3358.18 4401.29C3379.94 4460.3 2864.48 4509.72 2864.48 4509.72Z" fill="#1E3356"/>
<path d="M3095.39 4315.18C3094.93 4313.58 3093.63 4311.83 3092.05 4311.04C3088.66 4309.33 3084.04 4310.12 3082.11 4313.52C3078.86 4319.25 3075.61 4324.98 3072.37 4330.7C3071.45 4332.31 3071.11 4334.24 3071.63 4336.04C3072.09 4337.65 3073.39 4339.38 3074.97 4340.17C3078.36 4341.88 3082.98 4341.08 3084.91 4337.69L3094.65 4320.51C3095.58 4318.9 3095.91 4316.96 3095.39 4315.18Z" fill="white"/>
<path d="M3121.64 4320.03C3120.75 4318.6 3119.03 4317.22 3117.3 4316.84C3115.44 4316.44 3113.35 4316.53 3111.7 4317.55C3110.04 4318.57 3109.04 4319.91 3108.37 4321.68C3106.47 4326.63 3104.56 4331.59 3102.67 4336.53C3102.05 4338.13 3102.53 4340.43 3103.4 4341.86C3104.29 4343.3 3106.01 4344.68 3107.74 4345.05C3109.6 4345.46 3111.69 4345.37 3113.34 4344.35C3115 4343.32 3116 4341.98 3116.68 4340.21C3118.58 4335.27 3120.49 4330.31 3122.39 4325.37C3122.99 4323.75 3122.51 4321.45 3121.64 4320.03Z" fill="white"/>
<path d="M3150.9 4327.02C3150.01 4325.59 3148.29 4324.21 3146.56 4323.83C3144.7 4323.43 3142.61 4323.52 3140.96 4324.53C3139.34 4325.54 3138.2 4326.89 3137.62 4328.67C3136.1 4333.28 3134.6 4337.88 3133.09 4342.48C3132.54 4344.16 3132.9 4346.32 3133.82 4347.81C3134.71 4349.24 3136.43 4350.62 3138.16 4351C3140.02 4351.4 3142.11 4351.31 3143.76 4350.3C3145.38 4349.3 3146.52 4347.93 3147.1 4346.16C3148.62 4341.55 3150.12 4336.95 3151.63 4332.35C3152.18 4330.68 3151.81 4328.52 3150.9 4327.02Z" fill="white"/>
<path d="M3008.13 4286.75L2943.6 4303.45L2887.55 4317.92L2820.1 4335.46C2496.46 3316.26 2303.47 3260.87 1903.2 2842.22C1584.08 2508.61 1643.64 2297.47 1643.64 2297.47L2096.33 2313.06C2698.8 2908.75 3008.13 4286.75 3008.13 4286.75Z" fill="#FFD26E"/>
<path d="M2943.61 4303.46L2887.56 4317.92C2847.27 4164.14 2805.81 4010.76 2755.45 3859.75C2706.55 3713.47 2649.17 3569.57 2575.75 3432.89C2504.94 3300.95 2418.08 3179.31 2320.13 3064.48C2133.28 2844.86 1918.39 2638.32 1810.67 2369.43C1804.97 2355.38 1816.94 2339.09 1830.96 2335.33C1847.16 2331.15 1861.18 2340.75 1866.73 2354.67C1926.14 2502.89 2022.78 2634.29 2126.73 2757.04C2220.6 2868.1 2321.02 2974.16 2412.56 3086.9C2509.33 3206.18 2592.11 3333.66 2659.56 3470.05C2790.77 3735.33 2869.3 4019.81 2943.61 4303.46Z" fill="white"/>
<path d="M1987.46 868.417C1987.46 868.417 1918.84 788.628 1885.37 810.969C1851.9 833.311 1915.5 884.37 1915.5 884.37C1915.5 884.37 1839.54 850.864 1810.57 876.394C1781.61 901.923 2009.22 1035.96 2009.22 1035.96H2125.77C2125.77 1035.96 2337.25 893.947 2310.47 868.417C2283.69 842.888 2200.85 893.947 2200.85 893.947C2200.85 893.947 2252.1 823.357 2233.66 810.969C2197.18 786.442 2123.01 866.023 2123.01 866.023L1987.46 868.417Z" fill="#2B4172"/>
<path d="M1857.44 543.104C1857.44 543.104 1731.07 390.487 1789.65 327.053C1789.65 327.053 1826.43 179.952 1922.69 210.296C1922.69 210.296 2034.85 101.815 2110.16 165.249C2110.16 165.249 2229.76 105.485 2287.1 180.876C2287.1 180.876 2444.89 135.425 2420.62 342.941C2396.36 550.456 2300.96 598.861 2300.96 598.861L1857.44 543.104Z" fill="black"/>
<path d="M2152.88 920.452C2139.1 876.42 2152.82 825.621 2187.19 793.403C2214.16 768.108 2251.03 754.862 2280.76 732.559C2330.27 695.397 2356.24 635.308 2363.07 575.582C2369.91 515.857 2359.68 455.651 2348.42 396.537C2148.26 317.255 1971.68 321.744 1827.33 440.739C1906.15 591.457 1951.42 758.037 1959.29 926.295C1959.29 926.295 1827.33 1033.16 1827.33 1181.55C1827.33 1329.95 2295.03 1293.25 2295.03 1173.57C2295.05 1053.9 2152.88 920.452 2152.88 920.452Z" fill="#E7AC8D"/>
<path d="M2150.58 537.314C2150.58 550.677 2143.66 561.516 2135.12 561.516C2126.58 561.516 2119.66 550.677 2119.66 537.314C2119.66 523.95 2126.58 513.111 2135.12 513.111C2143.65 513.124 2150.58 523.95 2150.58 537.314Z" fill="black"/>
<path d="M2144 530.521C2144 536.246 2141.04 540.891 2137.37 540.891C2133.7 540.891 2130.74 536.246 2130.74 530.521C2130.74 524.796 2133.7 520.15 2137.37 520.15C2141.04 520.15 2144 524.796 2144 530.521Z" fill="white"/>
<path d="M2296.67 537.314C2296.67 550.677 2289.75 561.516 2281.21 561.516C2272.68 561.516 2265.74 550.677 2265.74 537.314C2265.74 523.95 2272.66 513.111 2281.21 513.111C2289.75 513.124 2296.67 523.95 2296.67 537.314Z" fill="black"/>
<path d="M2290.11 530.521C2290.11 536.246 2287.14 540.891 2283.47 540.891C2279.82 540.891 2276.84 536.246 2276.84 530.521C2276.84 524.796 2279.8 520.15 2283.47 520.15C2287.13 520.15 2290.11 524.796 2290.11 530.521Z" fill="white"/>
<path d="M2213.49 619.16C2211.56 619.16 2209.71 618.197 2208.7 616.493C2207.21 613.981 2208.15 610.806 2210.78 609.401C2215.08 607.111 2219.12 604.951 2222.39 602.114C2225.62 599.304 2227.65 596.051 2228.12 592.967C2228.55 589.961 2227.28 586.812 2225.1 585.498C2223.19 584.34 2220.3 584.106 2216.22 584.756C2213.23 585.225 2210.42 583.299 2209.92 580.449C2209.43 577.613 2211.45 574.919 2214.44 574.451C2221.27 573.384 2226.66 574.086 2230.92 576.65C2236.77 580.15 2240 587.294 2238.95 594.424C2237.9 601.464 2233.39 606.681 2229.77 609.83C2225.58 613.487 2220.79 616.037 2216.16 618.509C2215.32 618.939 2214.39 619.16 2213.49 619.16Z" fill="#BC7F64"/>
<path d="M2160.01 493.554C2156.12 489.898 2150.17 485.994 2144.44 483.548C2138.57 480.972 2132.25 479.475 2125.84 479.267C2119.47 479.15 2112.89 479.801 2106.68 482.208C2100.34 484.238 2094.5 487.738 2088.77 491.498L2088.43 491.719C2085.95 493.346 2082.53 492.747 2080.83 490.379C2079.2 488.128 2079.71 485.083 2081.88 483.392C2087.95 478.681 2094.37 474.127 2101.86 471.03C2109.15 467.582 2117.49 465.956 2125.8 465.526C2134.16 465.162 2142.63 466.541 2150.43 469.261C2158.38 472.123 2165.27 475.611 2172.42 481.31C2176.21 484.329 2176.72 489.716 2173.54 493.333C2170.37 496.95 2164.72 497.432 2160.93 494.4C2160.74 494.257 2160.56 494.101 2160.4 493.945L2160.01 493.554Z" fill="black"/>
<path d="M2247.51 481.987C2253.15 476.444 2258.72 472.891 2265.43 469.795C2272.02 466.854 2279.56 465.175 2287.06 465.527C2294.49 465.93 2301.87 467.882 2307.85 471.447C2314.06 474.752 2319.05 479.202 2323.71 483.743C2325.82 485.799 2325.78 489.104 2323.61 491.108C2321.58 492.995 2318.41 493.073 2316.28 491.381L2315.96 491.121C2311.52 487.556 2306.98 484.225 2302.01 482.169C2297.15 479.801 2291.96 479.124 2287.02 479.254C2282.05 479.475 2277.21 480.985 2272.75 483.483C2268.43 485.877 2263.9 489.612 2261.2 492.891L2260.94 493.203C2257.88 496.912 2252.25 497.536 2248.37 494.621C2244.5 491.707 2243.83 486.333 2246.88 482.637C2247.1 482.416 2247.31 482.195 2247.51 481.987Z" fill="black"/>
<path d="M2213.51 669.711C2177.89 669.711 2142.75 650.492 2125.06 620.955C2123.56 618.456 2124.47 615.256 2127.09 613.837C2129.71 612.38 2133.06 613.278 2134.56 615.776C2150.98 643.179 2184.28 660.576 2217.28 659.184C2220.36 659.002 2222.85 661.279 2223 664.155C2223.13 667.03 2220.8 669.477 2217.79 669.607C2216.37 669.672 2214.93 669.711 2213.51 669.711Z" fill="#BC7F64"/>
<path d="M1900.87 561.517C1900.87 561.517 1950.33 523.352 1933.59 408.456C1933.59 408.456 2054.24 450.706 2064.14 397.279C2064.14 397.279 2177.1 444.357 2206.4 397.279C2206.4 397.279 2303.47 469.886 2361.21 424.409V379.726C2361.21 379.726 2011.41 224.948 1810.58 434.78L1868.94 551.263L1900.87 561.517Z" fill="black"/>
<path d="M1897.88 667.851C1897.88 667.851 1925.4 773.977 1942.46 777.113C1959.52 780.248 1927.73 634.254 1927.73 634.254L1897.88 667.851Z" fill="black"/>
<path d="M1914.23 563.521C1945.89 592.486 1951.28 636.102 1926.28 660.955C1901.28 685.808 1855.32 682.49 1823.66 653.525C1792 624.56 1786.61 580.944 1811.61 556.091C1836.61 531.238 1882.56 534.569 1914.23 563.521Z" fill="#E7AC8D"/>
<path d="M1894.77 652.887C1893.63 652.887 1892.49 652.548 1891.5 651.859C1889.07 650.141 1888.57 646.875 1890.37 644.559C1901.93 629.712 1903.1 608.203 1893.24 592.277C1883.37 576.35 1863.08 566.955 1843.82 569.467C1840.84 569.857 1838.07 567.866 1837.65 565.004C1837.24 562.141 1839.34 559.512 1842.33 559.122C1865.75 556.064 1890.6 567.515 1902.67 586.955C1914.72 606.395 1913.29 632.64 1899.17 650.779C1898.1 652.158 1896.44 652.887 1894.77 652.887Z" fill="#BC7F64"/>
<path d="M1847.49 629.738C1846.68 629.738 1845.86 629.569 1845.1 629.217C1842.38 627.955 1841.25 624.832 1842.57 622.243C1847.79 612.015 1856.58 603.649 1867.32 598.691C1878.06 593.733 1890.41 592.367 1902.04 594.814C1904.99 595.438 1906.86 598.223 1906.2 601.033C1905.55 603.844 1902.61 605.574 1899.68 605.002C1890.42 603.05 1880.63 604.143 1872.08 608.073C1863.55 612.002 1856.56 618.665 1852.43 626.797C1851.47 628.658 1849.52 629.738 1847.49 629.738Z" fill="#BC7F64"/>
<path d="M1409.33 2041.2C1409.33 2041.2 1518.6 2118.39 1512.35 2153.56C1506.11 2188.73 1475.69 2217.7 1475.69 2217.7L1494.89 2282.65C1494.89 2282.65 1506.4 2320.82 1481.09 2326.75C1455.79 2332.68 1442.84 2314.28 1442.84 2314.28C1442.84 2314.28 1438.99 2339.77 1425.71 2346.12C1412.43 2352.47 1388.78 2341.49 1389.31 2334.06C1389.31 2334.06 1382.96 2361 1363.97 2364.78C1344.97 2368.56 1330.06 2348.65 1330.06 2348.65C1330.06 2348.65 1314.98 2372.77 1296.61 2373.16C1278.24 2373.55 1269.25 2348.22 1269.25 2348.22C1269.25 2348.22 1209.2 2232.84 1255.37 2062.7L1409.33 2041.2Z" fill="#E7AC8D"/>
<path d="M1465.95 2208.99C1462.98 2208.99 1460.35 2206.98 1459.8 2204.09L1446.39 2132.62C1445.77 2129.4 1448.04 2126.3 1451.44 2125.72C1454.82 2125.14 1458.07 2127.3 1458.68 2130.53L1472.1 2201.99C1472.71 2205.22 1470.45 2208.32 1467.05 2208.9C1466.68 2208.97 1466.31 2208.99 1465.95 2208.99Z" fill="#BC7F64"/>
<path d="M1462.64 2175.3C1460.8 2175.3 1459 2174.54 1457.76 2173.05C1455.61 2170.48 1456.06 2166.74 1458.75 2164.69L1471.51 2155.02C1474.22 2152.96 1478.13 2153.4 1480.29 2155.98C1482.43 2158.56 1481.98 2162.29 1479.28 2164.35L1466.52 2174.02C1465.37 2174.89 1464.01 2175.3 1462.64 2175.3Z" fill="#BC7F64"/>
<path d="M1758.57 1275.41L1451.63 1471.57L1429.46 2056.57C1374.2 2082.01 1315.42 2088.21 1253.13 2072.08C1253.13 2072.08 1166.55 1579.38 1224.95 1410.08C1314.21 1151.31 1766.43 979.148 1766.43 979.148L1758.57 1275.41Z" fill="#2B4172"/>
<path d="M1442 2053.7C1437.06 2045.65 1427.57 2044.6 1419.34 2048.04C1370.71 2068.38 1315.32 2074.5 1263.09 2065.61C1254.29 2064.11 1245.24 2067.89 1242.72 2076.64C1240.52 2084.28 1245.43 2094.56 1254.29 2096.07C1316.13 2106.6 1378.57 2099.36 1436.07 2075.32C1444.26 2071.88 1446.14 2060.46 1442 2053.7Z" fill="#1E3356"/>
<path d="M3222.43 1344.89C3222.43 1344.89 3214.17 1222.89 3244.54 1205.75C3274.9 1188.62 3315.29 1191.86 3315.29 1191.86L3352.64 1139.12C3352.64 1139.12 3374.45 1107.98 3394.35 1121.73C3414.25 1135.49 3408.24 1155.58 3408.24 1155.58C3408.24 1155.58 3429.84 1142.7 3442.72 1147.94C3455.6 1153.18 3461.72 1176.11 3455.78 1180.26C3455.78 1180.26 3479.99 1168.21 3494.4 1178.95C3508.82 1189.68 3502.85 1212.04 3502.85 1212.04C3502.85 1212.04 3530.24 1207.7 3541.74 1220.07C3553.21 1232.44 3539.57 1254.04 3539.57 1254.04C3539.57 1254.04 3478.95 1385.12 3322.36 1457.04L3222.43 1344.89Z" fill="#E7AC8D"/>
<path d="M3289.81 1290.47C3289.71 1290.47 3289.6 1290.47 3289.49 1290.46C3286.24 1290.3 3283.75 1287.65 3283.92 1284.57C3284.74 1269.62 3284.03 1256.39 3281.81 1245.27C3281.47 1243.63 3281.93 1241.94 3283.05 1240.64C3284.16 1239.35 3285.82 1238.61 3287.57 1238.59C3306.21 1238.54 3316.97 1237.42 3330.57 1235.98C3337.47 1235.25 3345.03 1234.47 3354.59 1233.71C3356.57 1233.56 3358.57 1233.45 3360.56 1233.35C3365.73 1233.09 3370.6 1232.83 3375.09 1231.67C3380.37 1230.31 3384.54 1227.72 3386.76 1224.37C3389.66 1220.04 3389.04 1215.68 3388.02 1212.78C3386.05 1207.26 3381.08 1202.41 3375.35 1200.4C3366.22 1197.23 3355.45 1198.26 3345.03 1199.23C3341.86 1199.53 3338.72 1199.83 3335.68 1200.01C3331.99 1200.1 3329.63 1197.87 3329.43 1194.77C3329.21 1191.67 3331.68 1189.01 3334.91 1188.81C3337.85 1188.63 3340.84 1188.34 3343.85 1188.06C3355.62 1186.95 3367.72 1185.78 3379.41 1189.86C3388.5 1193.04 3396.07 1200.44 3399.17 1209.17C3401.79 1216.55 3400.92 1224.1 3396.7 1230.41C3392.88 1236.11 3386.3 1240.39 3378.18 1242.49C3372.47 1243.97 3366.74 1244.27 3361.21 1244.54C3359.33 1244.63 3357.45 1244.74 3355.59 1244.88C3346.15 1245.62 3338.68 1246.4 3331.87 1247.13C3319.67 1248.41 3309.71 1249.46 3294.5 1249.73C3296 1260.22 3296.39 1272.1 3295.66 1285.14C3295.53 1288.14 3292.92 1290.47 3289.81 1290.47Z" fill="#BC7F64"/>
<path d="M2359.89 998.25C2496.63 1060.88 2643.06 1289.63 2809.15 1532.61L3223.78 1337.45C3269.19 1363.47 3303.76 1401.45 3322.37 1457.05C3322.37 1457.05 2933.57 1790.51 2761.3 1754.88C2589.04 1719.26 2339.02 1345.35 2339.02 1345.35L2359.89 998.25Z" fill="#2B4172"/>
<path d="M3334.83 1453.29C3319.32 1400.41 3282.29 1354.38 3232.76 1326.35C3215.43 1316.54 3199.69 1342.29 3217 1352.07C3259.7 1376.22 3291.38 1415.75 3304.71 1461.22C3310.12 1479.65 3340.26 1471.82 3334.83 1453.29Z" fill="#1E3356"/>
<path d="M1959.29 926.294C1959.29 926.294 2076.97 1039 2152.88 920.451L2361.2 998.809C2361.2 998.809 2387.83 1846.85 2462.9 2297.76C2467.53 2325.51 2449.23 2352.03 2420.55 2358.52C2309.77 2383.6 2027.18 2429.56 1667.31 2353.92C1641.57 2348.51 1623.01 2327.01 1622.81 2301.88C1621.16 2083.49 1621.65 1088.42 1766.42 979.135L1959.29 926.294Z" fill="#2B4172"/>
<path d="M2436.33 2342.53C2180.5 2397.31 1912.93 2395.18 1658.04 2336.57C1621.71 2328.22 1606.19 2381.62 1642.59 2389.99C1907.8 2450.96 2185.62 2452.94 2451.77 2395.95C2488.25 2388.14 2472.81 2334.71 2436.33 2342.53Z" fill="#1E3356"/>
<path d="M1973.03 1943.14C1973.03 1943.14 1997.51 2059.82 1893.74 2090.65C1893.74 2090.65 1884.92 2179.99 1878.81 2228.99C1878.81 2228.99 2178.76 2261.66 2378.23 2199.82L2370.75 2085.48C2370.75 2085.48 2289.98 2057.48 2296.1 1943.14C2296.1 1943.14 2172.51 1910.48 1973.03 1943.14Z" fill="#1E3356"/>
<path d="M2097.98 992.799C2097.82 992.799 2097.66 992.786 2097.49 992.786C2035.41 987.555 1976.9 958.369 1936.98 912.71C1935.04 910.498 1935.35 907.206 1937.67 905.358C1939.98 903.498 1943.45 903.797 1945.39 906.022C1983.45 949.56 2039.24 977.393 2098.46 982.389C2101.46 982.637 2103.69 985.174 2103.43 988.05C2103.18 990.756 2100.78 992.799 2097.98 992.799Z" fill="#1E3356"/>
<path d="M2044.78 982.025C2041.9 982.025 2039.49 979.878 2039.32 977.094C2039.15 974.218 2041.47 971.759 2044.48 971.59C2067.1 970.379 2091.06 964.069 2108.6 954.726C2128.79 943.978 2144.85 927.14 2160.38 910.862C2162.43 908.742 2165.88 908.572 2168.12 910.511C2170.36 912.45 2170.52 915.755 2168.49 917.889C2152.36 934.779 2135.68 952.267 2113.95 963.834C2095.02 973.919 2069.3 980.711 2045.1 982.012C2044.99 982.025 2044.89 982.025 2044.78 982.025Z" fill="#1E3356"/>
<path d="M1996.96 1013.68C1987.39 1013.68 1978.25 1011.33 1971.22 1009.21C1941.81 1000.37 1914.61 984.848 1892.53 964.302C1890.37 962.285 1890.33 958.98 1892.44 956.911C1894.56 954.855 1898.03 954.829 1900.18 956.833C1921.02 976.247 1946.74 990.912 1974.51 999.265C1981.22 1001.28 1990.05 1003.55 1998.68 1003.22C2006.92 1002.9 2014.31 1000.09 2018.96 995.505C2021.08 993.436 2024.53 993.397 2026.7 995.388C2028.87 997.392 2028.92 1000.7 2026.82 1002.77C2020.15 1009.35 2010.29 1013.21 1999.12 1013.66C1998.41 1013.66 1997.68 1013.68 1996.96 1013.68Z" fill="#1E3356"/>
<path d="M2142.53 1001.8C2137.58 1001.8 2132.63 1001.45 2127.71 1000.75C2124.72 1000.32 2122.66 997.652 2123.12 994.816C2123.57 991.979 2126.37 990.001 2129.35 990.443C2158.88 994.737 2189.79 984.367 2210.05 963.469C2212.09 961.362 2215.57 961.218 2217.78 963.17C2220.01 965.122 2220.15 968.427 2218.08 970.548C2198.77 990.443 2170.81 1001.8 2142.53 1001.8Z" fill="#1E3356"/>
<path d="M2199.59 1337.29C2199.22 1337.29 2198.85 1337.25 2198.49 1337.19C2195.52 1336.62 2193.61 1333.84 2194.23 1331.02C2203.45 1288.34 2190.91 1243.83 2178.94 1209.81C2175.68 1200.55 2172.23 1191.32 2168.77 1182.11C2157.6 1152.3 2146.04 1121.47 2141.48 1088.92C2136.44 1052.97 2140.07 1016.6 2143.58 981.44C2143.87 978.577 2146.53 976.573 2149.56 976.742C2152.56 977.016 2154.77 979.566 2154.48 982.442C2151.03 1017.01 2147.46 1052.77 2152.33 1087.54C2156.74 1119 2168.11 1149.29 2179.09 1178.6C2182.57 1187.89 2186.05 1197.17 2189.34 1206.5C2201.73 1241.76 2214.71 1288 2204.97 1333.13C2204.41 1335.59 2202.14 1337.29 2199.59 1337.29Z" fill="white"/>
<path d="M2033.66 1333.41C2032.8 1333.41 2031.93 1333.22 2031.09 1332.8C2028.42 1331.46 2027.41 1328.3 2028.83 1325.75C2049.46 1288.67 2042.87 1244.58 2033.73 1214.12C2027.31 1192.82 2018.16 1171.86 2009.3 1151.6C2002.49 1136.02 1995.45 1119.93 1989.62 1103.62C1973.04 1057.17 1970.81 1016.94 1983.03 984.055C1984.05 981.336 1987.19 979.931 1990.01 980.88C1992.87 981.843 1994.35 984.823 1993.34 987.543C1981.96 1018.16 1984.2 1056.09 1999.98 1100.27C2005.68 1116.23 2012.66 1132.18 2019.4 1147.59C2028.38 1168.14 2037.67 1189.37 2044.25 1211.26C2053.97 1243.57 2060.85 1290.5 2038.5 1330.66C2037.51 1332.41 2035.61 1333.41 2033.66 1333.41Z" fill="white"/>
<path d="M2375.08 1366.58C2374.97 1366.58 2374.87 1366.58 2374.76 1366.57C2371.75 1366.41 2369.44 1363.94 2369.6 1361.06C2372.74 1307.31 2367.99 1253.44 2355.45 1200.93C2354.78 1198.11 2356.63 1195.32 2359.57 1194.68C2362.51 1194.07 2365.46 1195.8 2366.12 1198.61C2378.89 1252.06 2383.73 1306.91 2380.54 1361.64C2380.37 1364.43 2377.96 1366.58 2375.08 1366.58Z" fill="#1E3356"/>
<path d="M1688.28 1321.71C1686.47 1321.71 1684.69 1320.86 1683.66 1319.29C1682.03 1316.86 1682.78 1313.63 1685.34 1312.09C1709.89 1297.2 1730.52 1276.6 1745 1252.53C1746.52 1250.03 1749.86 1249.19 1752.47 1250.6C1755.09 1252.04 1755.99 1255.22 1754.49 1257.72C1739.12 1283.26 1717.24 1305.1 1691.19 1320.9C1690.3 1321.45 1689.29 1321.71 1688.28 1321.71Z" fill="#1E3356"/>
</svg>
