<svg width="11118" height="4280" viewBox="0 0 11118 4280" fill="none" xmlns="http://www.w3.org/2000/svg">
<path d="M250.753 4251.89C250.753 4251.89 -422.847 1969.05 682.365 1658.01C1787.58 1346.96 2441.15 1374.91 2771.38 573.456C2984.38 56.5198 4232.72 -427.043 4884.98 624.136C5537.24 1675.32 6097.95 1670.01 6548 1475.56C7064.11 1252.57 7332.05 496.526 8139.94 638.456C9073.67 802.5 9014.35 1770 9595.51 1708.69C10652.3 1597.2 11546.2 3161.29 10355.5 4265.03L250.753 4251.89Z" fill="#EAF1F8"/>
<path d="M6524.97 382.51H5174.87C5152.77 382.51 5134.69 405.821 5134.69 434.315C5134.69 462.808 5152.77 486.123 5174.87 486.123H5370.18V4207.63C5370.18 4231.99 5385.64 4251.92 5404.54 4251.92C5423.43 4251.92 5438.89 4231.99 5438.89 4207.63V3700.69H6291.23V4207.63C6291.23 4231.99 6306.69 4251.92 6325.58 4251.92C6344.48 4251.92 6359.94 4231.99 6359.94 4207.63V486.126H6524.97C6547.07 486.126 6565.15 462.814 6565.15 434.318C6565.15 405.825 6547.07 382.51 6524.97 382.51ZM5438.89 1830.54H6291.23V2698.14H5438.89V1830.54ZM6291.22 1763.07H5438.89V895.459H6291.22V1763.07ZM5438.89 3633.22V2765.62H6291.23V3633.22H5438.89ZM6291.22 827.989H5438.89V486.126H6291.22V827.989Z" fill="#C5DBFF"/>
<path d="M3878.72 1980.96H3868.25V3943.57H3878.72V1980.96Z" fill="#ADCBFF"/>
<path d="M10398.3 4004.49H8465.6L8111.84 2767.42H8313.41C8314.96 2767.42 8316.47 2767.21 8317.99 2766.84L8719.8 2666.31C8731.94 2663.26 8740.28 2648.86 8739.1 2633C8737.91 2617.13 8727.57 2605.01 8715.22 2605.01H8065.39L7891.93 1998.44C7880.53 1958.32 7845.94 1937.92 7814.95 1952.63C7795.93 1961.66 7782.62 1981.81 7777.75 2005.26L7454.44 2020.35L7448.17 1998.44C7436.72 1958.32 7402.14 1937.92 7371.18 1952.63C7340.11 1967.39 7324.21 2011.83 7335.66 2051.89L7894 4004.49H7623.79C7571.02 4004.49 7527.84 4060.16 7527.84 4128.2C7527.84 4196.23 7571.02 4251.9 7623.79 4251.9H10398.3C10451.1 4251.9 10494.2 4196.23 10494.2 4128.2C10494.2 4060.16 10451.1 4004.49 10398.3 4004.49ZM8465.66 2666.9L8311.12 2705.54H8094.13L8083.09 2666.9H8465.66ZM7880.6 2405.7L7966.34 2705.53H7650.36L7574.69 2440.88L7880.6 2405.7ZM7668.06 2767.42H7984.04L8337.8 4004.49H8021.8L7668.06 2767.42Z" fill="#C5DBFF"/>
<path d="M3911.94 4251.37C3792.56 4251.37 3676.74 4221.23 3567.71 4161.76C3462.4 4104.33 3367.82 4022.13 3286.62 3917.42C3205.41 3812.71 3141.65 3690.78 3097.1 3555C3050.98 3414.41 3027.6 3265.08 3027.6 3111.17C3027.6 2957.26 3050.98 2807.93 3097.1 2667.34C3141.65 2531.57 3205.41 2409.63 3286.62 2304.93C3367.82 2200.22 3462.4 2118.01 3567.71 2060.58C3676.75 2001.12 3792.56 1970.97 3911.94 1970.97C4031.31 1970.97 4147.13 2001.12 4256.17 2060.58C4361.48 2118.01 4456.05 2200.22 4537.26 2304.93C4618.47 2409.63 4682.23 2531.57 4726.77 2667.34C4772.89 2807.93 4796.27 2957.26 4796.27 3111.17C4796.27 3265.08 4772.89 3414.41 4726.77 3555C4682.23 3690.78 4618.47 3812.71 4537.26 3917.42C4456.05 4022.13 4361.48 4104.33 4256.17 4161.76C4147.12 4221.23 4031.31 4251.37 3911.94 4251.37ZM3911.94 2030.24C3688 2030.24 3477.47 2142.68 3319.12 2346.84C3160.77 2551 3073.57 2822.45 3073.57 3111.18C3073.57 3399.9 3160.77 3671.35 3319.12 3875.51C3477.47 4079.67 3688 4192.1 3911.94 4192.1C4135.87 4192.1 4346.41 4079.67 4504.75 3875.51C4663.1 3671.35 4750.3 3399.9 4750.3 3111.18C4750.3 2822.45 4663.1 2551 4504.75 2346.84C4346.41 2142.68 4135.87 2030.24 3911.94 2030.24Z" fill="#C5DBFF"/>
<path d="M797.837 1226.12C799.619 1186.97 795.238 1149.88 795.238 1149.88C772.308 1225.24 740.767 1263.47 718.37 1282.26C711.008 1284.56 705.198 1285.48 702.243 1284.56C689.836 1280.72 678.014 1275.62 666.725 1269.58C699.872 1236.63 732.024 1184.47 733.987 1181.22C704.204 1216.6 668 1240.84 642.981 1254.9C581.35 1211.74 539.108 1141.14 516.203 1094.66C674.37 1030.28 720.92 902.427 720.92 902.427C580.331 1047.13 518.09 1054.12 496.279 1049.13C495.998 1048.41 495.871 1048.05 495.871 1048.05C707.338 975.781 765.938 657.14 837.276 545.452C908.614 433.764 995.239 519.173 995.239 519.173C995.239 519.173 986.069 914.35 797.837 1226.12Z" fill="#A9453D"/>
<path d="M1166.43 1132.83C1166.43 1132.83 1304.66 1227.52 1293.19 1312.29C1274.9 1447.5 1197.9 1742.27 1197.9 1742.27L1422.72 1597.89L1462.92 1660.43C1462.92 1660.43 1189.89 2011.88 1093.71 1931.15C997.53 1850.43 1166.43 1132.83 1166.43 1132.83Z" fill="#C0783D"/>
<path d="M1200.11 616.077C1200.11 616.077 1048.52 381.204 968.259 531.488C968.259 531.488 908.386 563.516 886.729 694.914C864.632 828.978 933.78 930.882 969.531 905.699C992.461 889.549 1009.82 941.287 1009.82 941.287L1200.11 616.077Z" fill="#A9453D"/>
<path d="M1152.46 1131.27C1153.04 1131.6 1096.73 1169.3 1054.38 1154.36C1014.54 1140.36 964.047 1123.13 964.596 1122.98C981.469 1118.66 1010.8 1039.39 1010.44 910.939L1018.07 912.875L1146.31 945.617C1146.31 945.617 1143.39 997.652 1143.31 1046.67C1143.22 1087.84 1145.16 1126.87 1152.46 1131.27Z" fill="#CE8E55"/>
<path d="M1146.31 945.619C1146.31 945.619 1143.4 997.655 1143.31 1046.67C1071.55 1044.07 1033.61 959.661 1018.07 912.877L1146.31 945.619Z" fill="#C0783D"/>
<path d="M1004.82 894.876C1004.82 894.876 967.215 818.26 958.188 752.747C951.744 705.976 970.22 532.608 1105.34 557.576C1105.34 557.576 1144.59 562.562 1181.47 594.686C1210.81 620.234 1253.15 675.387 1205.81 826.671L1193.51 877.774L1004.82 894.876Z" fill="#A9453D"/>
<path d="M1170.28 992.036C1170.28 992.036 1000.49 995.647 1000.37 859.282C1000.25 722.918 978.258 631.546 1086.66 623.471C1195.07 615.402 1216.17 667.406 1224.8 712.911C1233.42 758.413 1214.44 987.582 1170.28 992.036Z" fill="#CE8E55"/>
<path d="M805.633 2152.87C865.176 1980.71 893.66 1932.02 894.654 1877.86C894.935 1863.11 894.092 1840.93 891.572 1813.57C888.488 1779.63 882.782 1737.69 873.432 1692C873.432 1692 873.432 1692 873.407 1692C873.33 1691.63 873.228 1691.14 873.126 1690.58C872.361 1686.61 870.783 1677.8 868.795 1665.19C852.538 1561.39 809.177 1198.47 964.896 1122.49C966.477 1122.26 968.03 1122.09 969.534 1121.96C1037.46 1116.01 1166.99 1132.9 1166.99 1132.9C1166.99 1132.9 1190.94 1175.77 1217.13 1239.83C1246.25 1311.11 1278.18 1408.64 1282.91 1502.45C1287.75 1598.25 1262.61 1664.86 1251.8 1761.37C1242.48 1844.32 1241.51 1947.07 1281.41 2111.55C1369.56 2475 772.743 2248 805.633 2152.87Z" fill="#CE8E55"/>
<path d="M1219.75 637.087C1193.55 596.142 1173.73 605.04 1162.61 617.339C1158.83 610.058 1154.21 604.617 1148.97 600.705C1050.9 549.826 1009.95 648.879 1009.95 648.879C998.595 746.724 943.869 802.775 943.869 802.775C943.869 802.775 974.816 827.419 1046.16 803.768C1067.93 796.549 1087.38 776.627 1103.91 752.441C1075.04 814.794 1035.78 859.709 1035.78 859.709C1121 808.917 1155.22 656.099 1158.63 639.939C1168.99 651.939 1189.43 678.01 1195.65 703.561C1204.12 738.287 1207.93 809.77 1224.09 807.341C1224.09 807.341 1259.11 698.601 1219.75 637.087Z" fill="#A9453D"/>
<path d="M1251.8 1761.37C1251.8 1761.37 1025.79 1844.84 891.571 1813.57C888.486 1779.63 882.78 1737.68 873.43 1691.99C873.43 1691.99 873.43 1691.99 873.406 1691.99C873.329 1691.63 873.227 1691.14 873.125 1690.58C872.359 1686.61 870.781 1677.8 868.793 1665.19C911.622 1632.87 962.118 1609.77 962.118 1609.77L1251.8 1761.37Z" fill="#C0783D"/>
<path d="M1005.43 1148.79C1005.43 1148.79 1141.31 1229.82 1207.56 1232.01C1273.8 1234.2 1058.93 1303.18 1005.43 1148.79Z" fill="#C0783D"/>
<path d="M1281.54 1570.58C1275.93 1633.88 1259.86 1689.3 1251.81 1761.37C1096.42 1787.65 926.81 1716.93 873.433 1692C873.433 1692 873.433 1692 873.408 1692C873.331 1691.64 873.229 1691.14 873.127 1690.58C866.019 1653.79 790.272 1207.7 964.899 1122.48C987.396 1131.91 1011.68 1149.22 1034.74 1179.44C1084.27 1244.42 1167.6 1245.9 1217.13 1239.82C1237.34 1289.26 1258.87 1351.35 1271.76 1416.03C1277.47 1444.61 1281.47 1473.71 1282.92 1502.45C1284.14 1526.73 1283.45 1549.1 1281.54 1570.58Z" fill="#ACD29A"/>
<path d="M1152.46 1131.27C1152.46 1131.27 1192.27 1129.07 1205.01 1140.02C1217.75 1150.97 1282.29 1248.43 1285.69 1261.57C1285.69 1261.57 1205.86 1252.81 1198.22 1259.38C1198.22 1259.38 1227.31 1237.48 1152.46 1131.27Z" fill="#88B374"/>
<path d="M1506.7 4165.48L1446.63 4141.91C1446.63 4141.91 1158.58 3714.07 1223.3 3264.92C1223.98 3260.12 1224.01 3255.23 1222.3 3250.89C1222.28 3250.83 1222.28 3250.79 1222.25 3250.76C1209.79 3219 1156.18 3080.47 1100.54 2908.6C1073.92 2826.31 1046.81 2736.34 1023.55 2646.76C1009.79 2593.84 997.382 2541.05 987.19 2490.07C987.088 2489.58 987.011 2489.21 986.961 2488.92C986.884 2488.56 986.859 2488.36 986.859 2488.36C961.84 2362.48 950.477 2247.81 966.172 2169.36L1274.38 2073.57C1274.38 2073.57 1308.16 2235.48 1340.98 2444.8C1386.94 2738.05 1436.57 3124.36 1410 3288.96C1386.41 3434.98 1506.7 4165.48 1506.7 4165.48Z" fill="#CE8E55"/>
<path d="M1392.22 1617.16C1392.22 1617.16 1418.97 1655.35 1427.25 1705.04C1427.25 1705.04 1462.29 1661.1 1464.36 1660.07C1466.43 1659.05 1497.16 1636.87 1510.54 1611.41C1523.91 1585.95 1532.83 1564.88 1514.99 1526.55C1497.16 1488.23 1446.2 1477.28 1440.26 1484.94C1434.31 1492.61 1418.18 1587.87 1418.18 1587.87C1418.18 1587.87 1416.35 1595.09 1392.22 1617.16Z" fill="#B2CBFD"/>
<path d="M1100.54 2908.6C1073.92 2826.31 1046.81 2736.34 1023.55 2646.76C1009.79 2593.84 997.381 2541.05 987.189 2490.07C987.087 2489.58 987.01 2489.22 986.96 2488.92C986.883 2488.56 986.858 2488.36 986.858 2488.36L1010.4 2485.01L1249.16 2450.98C1249.16 2450.98 1250.69 2474.2 1252.75 2512.77C1257.77 2606.23 1181.03 2766.96 1100.54 2908.6Z" fill="#C0783D"/>
<path d="M1236.01 2181.35L1096.08 2582.11C1095.37 2581.65 1094.66 2581.19 1093.94 2580.73C1014.6 2861.89 900.82 3224.88 811.571 3347.5C732.411 3456.27 541.3 4162.73 541.3 4162.73L489.909 4139.17C489.909 4139.17 425.144 3541.31 661.988 3201.49C664.511 3197.87 666.499 3193.7 666.805 3188.87V3188.71C668.843 3155.89 677.735 3021.73 696.462 2856.3C700.995 2816.16 706.117 2774.21 711.851 2731.38C720.181 2669.29 729.812 2605.4 740.869 2542.82C741.048 2541.77 741.227 2540.75 741.403 2539.77C741.863 2524.59 743.829 2498.97 746.605 2465.96C750.4 2420.89 756.409 2361.85 768.841 2294.65C769.224 2292.68 769.579 2290.67 769.962 2288.67C797.936 2140.12 837.887 2065.29 837.887 2065.29C837.887 2065.29 1050.65 2141.11 1124.54 2147.68C1198.43 2154.25 1236.01 2181.35 1236.01 2181.35Z" fill="#CE8E55"/>
<path d="M1340.98 2444.81C1330.25 2466.56 1295.5 2491.09 1252.75 2512.78L1252.21 2513.04C1202.63 2538.1 1142.43 2559.32 1096.52 2567.97C1057.64 2575.29 1029 2573.55 1025.82 2557.48C1000.8 2431.6 950.479 2247.81 966.174 2169.37L1283.63 2113.75C1283.63 2113.75 1308.16 2235.49 1340.98 2444.81Z" fill="#739CF3"/>
<path d="M1053.84 2572.26C1044.57 2575.25 876.54 2820.01 696.463 2856.31C700.996 2816.17 706.118 2774.22 711.852 2731.38C720.183 2669.3 729.813 2605.41 740.87 2542.83C741.049 2541.78 741.228 2540.76 741.405 2539.77C741.864 2524.6 743.83 2498.98 746.606 2465.97C821.18 2371.89 898.423 2289.76 898.423 2289.76L1053.84 2572.26Z" fill="#C0783D"/>
<path d="M486.653 4252.51H522.399C534.373 4250.07 543.216 4245.61 555.496 4243.54C574.145 4240.38 582.732 4250.24 584.44 4252.51C584.668 4252.8 584.77 4252.97 584.77 4252.97H736.619C740.442 4245.94 736.771 4229.65 733.18 4217.65C730.759 4209.5 725.485 4203.33 718.964 4200.9C702.861 4194.88 671.114 4189.53 642.046 4155.6C625.691 4136.55 563.063 4085.53 563.063 4085.53L562.733 4085.43C561.356 4085.47 554.81 4088.06 526.326 4119.07C511.6 4135.07 486.504 4096.47 486.504 4096.47C486.504 4096.47 481.792 4101.49 478.275 4110.85C475.447 4118.25 473.382 4128.4 475.012 4140.91C477.281 4158.55 469.967 4191.34 464.134 4213.51C460.592 4226.94 457.61 4236.47 457.61 4236.47C457.61 4236.47 455.902 4247.55 486.653 4252.51Z" fill="#485CA6"/>
<path d="M478.271 4110.86C486.806 4118.61 504.819 4133.89 516.769 4135.9C532.896 4138.62 563.062 4085.54 563.062 4085.54L562.732 4085.44C561.355 4085.47 554.809 4088.06 526.325 4119.08C511.599 4135.07 486.503 4096.48 486.503 4096.48C486.503 4096.48 481.786 4101.5 478.271 4110.86Z" fill="#A9453D"/>
<path d="M486.653 4252.51H522.399C534.373 4250.07 543.216 4245.61 555.496 4243.54C574.145 4240.38 582.732 4250.24 584.44 4252.51C584.668 4252.8 584.77 4252.97 584.77 4252.97H736.619C740.442 4245.94 736.771 4229.65 733.18 4217.65C728.567 4212.37 727.267 4240.61 724.722 4245.11C722.175 4249.61 600.847 4246.76 593.841 4240.19C586.835 4233.62 565.815 4222.12 536.516 4231.15C511.011 4239.01 473.431 4218.87 464.134 4213.52C460.592 4226.95 457.61 4236.48 457.61 4236.48C457.61 4236.48 455.902 4247.55 486.653 4252.51Z" fill="#A9453D"/>
<path d="M1419.1 4252.51H1454.85C1466.82 4250.07 1475.66 4245.61 1487.94 4243.54C1506.59 4240.38 1515.18 4250.24 1516.89 4252.51C1517.12 4252.8 1517.22 4252.97 1517.22 4252.97H1669.07C1672.89 4245.94 1669.22 4229.65 1665.63 4217.65C1663.21 4209.5 1657.93 4203.33 1651.41 4200.9C1635.31 4194.88 1603.56 4189.53 1574.5 4155.6C1558.14 4136.55 1495.51 4085.53 1495.51 4085.53L1495.18 4085.43C1493.81 4085.47 1487.26 4088.06 1458.77 4119.07C1444.05 4135.07 1418.95 4096.47 1418.95 4096.47C1418.95 4096.47 1414.24 4101.49 1410.72 4110.85C1407.89 4118.25 1405.83 4128.4 1407.46 4140.91C1409.73 4158.55 1402.42 4191.34 1396.58 4213.51C1393.04 4226.94 1390.06 4236.47 1390.06 4236.47C1390.06 4236.47 1388.35 4247.55 1419.1 4252.51Z" fill="#485CA6"/>
<path d="M1410.72 4110.86C1419.26 4118.61 1437.27 4133.89 1449.22 4135.9C1465.35 4138.62 1495.51 4085.54 1495.51 4085.54L1495.18 4085.44C1493.8 4085.47 1487.26 4088.06 1458.77 4119.08C1444.05 4135.07 1418.95 4096.48 1418.95 4096.48C1418.95 4096.48 1414.23 4101.5 1410.72 4110.86Z" fill="#A9453D"/>
<path d="M1419.1 4252.51H1454.85C1466.82 4250.07 1475.66 4245.61 1487.94 4243.54C1506.59 4240.38 1515.18 4250.24 1516.89 4252.51C1517.12 4252.8 1517.22 4252.97 1517.22 4252.97H1669.07C1672.89 4245.94 1669.22 4229.65 1665.63 4217.65C1661.02 4212.37 1659.72 4240.61 1657.17 4245.11C1654.62 4249.61 1533.3 4246.76 1526.29 4240.19C1519.28 4233.62 1498.27 4222.12 1468.97 4231.15C1443.46 4239.01 1405.88 4218.87 1396.58 4213.52C1393.04 4226.95 1390.06 4236.48 1390.06 4236.48C1390.06 4236.48 1388.35 4247.55 1419.1 4252.51Z" fill="#A9453D"/>
<path d="M1281.54 1570.58C1013.71 1553.93 900.336 1415.96 900.336 1415.96L1271.75 1416.02C1277.46 1444.6 1281.46 1473.71 1282.91 1502.45C1284.14 1526.73 1283.45 1549.1 1281.54 1570.58Z" fill="#88B374"/>
<path d="M1784.21 1364.5C1784.21 1364.5 1568.9 1455.93 1412.23 1460.85C1280.43 1464.99 1052.59 1485.93 931.342 1434.16C908.437 1424.37 892.36 1411.62 885.685 1395.16C843.646 1291.69 912.871 1184.7 912.871 1184.7C912.871 1184.7 951.98 1189.86 1010.86 1197.12C1159.42 1215.51 1350.79 1271.65 1441.11 1268.14C1567.2 1263.21 1682.3 1274.71 1789.31 1279.09L1784.21 1364.5Z" fill="#CE8E55"/>
<path d="M930.95 1438.97C907.161 1428.81 890.462 1415.57 883.528 1398.47C839.866 1291 887.069 1207.65 914.828 1179.88C935.028 1159.67 964.591 1174.54 1013.54 1192.78C999.3 1211.78 923.991 1318.51 930.95 1438.97Z" fill="#ACD29A"/>
<path d="M1755.34 1277.45C1755.34 1277.45 1761.02 1338.41 1744.77 1380.29C1744.77 1380.29 1781.4 1365.66 1784.58 1365.87C1787.77 1366.07 1861.5 1373.67 1887.61 1369.97C1913.73 1366.28 1927.31 1368.88 1929.86 1308.11C1932.41 1247.34 1931.13 1222.7 1922.22 1222.15C1913.3 1221.6 1870.41 1231.46 1791.43 1275.26C1791.43 1275.26 1786.76 1278.27 1755.34 1277.45Z" fill="#B2CBFD"/>
<path d="M1252.75 2512.78L1252.22 2513.04C1202.63 2538.1 1142.43 2559.32 1096.52 2567.97C1064.16 2500.99 976.772 2302.84 1080.6 2313.78C1205.44 2326.92 1252.75 2512.78 1252.75 2512.78Z" fill="#6488D3"/>
<path d="M837.898 2065.29C837.898 2065.29 758.475 2188.65 741.401 2539.77C741.401 2539.77 848.319 2567.88 871.251 2559.12C894.18 2550.36 934.096 2424.44 934.096 2424.44C934.096 2424.44 912.017 2548.17 933.246 2571.17C954.478 2594.16 1088.66 2614.97 1088.66 2614.97L1248.32 2157.26C1248.32 2157.26 1026.21 2124.42 837.898 2065.29Z" fill="#739CF3"/>
<path d="M835.338 2069.66C835.338 2069.66 1023.27 2201.06 1157.03 2163.29C1290.79 2125.51 1283.63 2113.75 1283.63 2113.75L1260.61 2011.17C1260.61 2011.17 1191.42 2063.09 1098.43 2058.17C1005.43 2053.24 871.65 1972.35 871.65 1972.35L835.338 2069.66Z" fill="#6488D3"/>
<path d="M4448.92 1129.2C4448.92 1129.2 4292.66 1140.96 4275.68 1224.19C4248.58 1356.92 4223.27 1666.24 4223.27 1666.24L4065.6 1414.16L4008.84 1449.4C4008.84 1449.4 4143.38 1915.62 4256.91 1893.93C4370.43 1872.24 4448.92 1129.2 4448.92 1129.2Z" fill="#C0783D"/>
<path d="M4788.62 2151.9C4729.08 1979.73 4700.6 1931.05 4699.61 1876.88C4698.82 1834.05 4715.2 1787.83 4747.02 1674.5C4754.51 1647.79 4759.68 1620.33 4762.87 1592.57C4788.04 1374.08 4690.04 1137.89 4629.14 1121.81C4612.19 1116.03 4583.47 1037.12 4583.82 909.963L4576.19 911.898L4447.94 944.64C4447.94 944.64 4450.86 996.676 4450.95 1045.7C4451.03 1086.48 4449.13 1125.15 4441.99 1130.14C4432.73 1131.22 4427.27 1131.93 4427.27 1131.93C4427.27 1131.93 4320.34 1323.4 4311.34 1501.48C4302.35 1679.55 4396.97 1756.92 4310.63 2112.77C4222.48 2476.22 4821.52 2247.03 4788.62 2151.9Z" fill="#CE8E55"/>
<path d="M4750.42 449.212C4721.97 426.766 4676.53 453.593 4676.53 453.593C4692.24 425.122 4749.57 434.431 4749.57 434.431C4635.39 403.108 4611.55 497.23 4609.58 506.042C4526.76 409.674 4394.15 615.102 4394.15 615.102L4584.44 940.312C4584.44 940.312 4601.8 888.574 4624.73 904.724C4660.48 929.907 4729.63 828.006 4707.53 693.939C4705.14 679.449 4702.27 666.23 4699.08 654.064C4706.51 658.258 4714.94 661.639 4722.82 661.639C4743.62 661.639 4775.05 593.2 4779.29 570.206C4783.54 547.214 4778.87 471.662 4750.42 449.212Z" fill="#2C3A64"/>
<path d="M4447.95 944.64C4447.95 944.64 4450.86 996.676 4450.95 1045.7C4522.71 1043.09 4560.65 958.682 4576.19 911.898L4447.95 944.64Z" fill="#C0783D"/>
<path d="M4589.44 893.898C4589.44 893.898 4627.04 817.282 4636.07 751.772C4642.52 705.002 4624.04 531.633 4488.92 556.602C4488.92 556.602 4449.67 561.588 4412.78 593.711C4383.45 619.26 4341.11 674.413 4388.45 825.697L4400.75 876.8L4589.44 893.898Z" fill="#2C3A64"/>
<path d="M4423.98 991.062C4423.98 991.062 4593.77 994.67 4593.89 858.309C4594.01 721.945 4616 630.573 4507.6 622.501C4399.19 614.429 4378.09 666.433 4369.46 711.938C4360.84 757.439 4379.82 986.608 4423.98 991.062Z" fill="#CE8E55"/>
<path d="M4534.15 2913.31C4510.13 3088.76 4492.5 3220.29 4492.5 3220.29C4563.58 3596.19 4236.62 4177.62 4236.62 4177.62L4185.83 4151.33C4185.83 4151.33 4333.77 3692.44 4283.32 3234.84C4211.98 2587.71 4306.25 2154.1 4306.25 2154.1L4608.11 2279.65L4622.18 2285.5C4595.35 2468.83 4560.83 2718.22 4534.15 2913.31Z" fill="#CE8E55"/>
<path d="M4747.02 1674.5C4715.2 1787.83 4698.81 1834.05 4699.6 1876.88C4598.17 1674.4 4414.96 1643.85 4414.96 1643.85L4762.87 1592.57C4759.68 1620.33 4754.51 1647.79 4747.02 1674.5Z" fill="#C0783D"/>
<path d="M4620.59 1117.7C4620.59 1117.7 4765.7 1136.86 4782.69 1185.04C4837.51 1340.55 4892.25 1865.02 4907.53 1911.01C4922.82 1957 4969.53 2209.94 5009.44 2334.77L4958.49 2354.48C4958.49 2354.48 4790.33 1994.77 4775.04 1901.15C4759.76 1807.54 4675.94 1426.79 4675.94 1426.79L4620.59 1117.7Z" fill="#CE8E55"/>
<path d="M4735 1547.53L4736.99 1710.01C4736.99 1710.01 4626.34 1668.55 4508.2 1655.9C4479.41 1652.81 4450.16 1651.47 4421.98 1652.81C4387.07 1654.46 4353.78 1660.34 4324.93 1672.29C4324.93 1672.29 4306.26 1567.17 4287.56 1442.35C4286.89 1437.85 4286.36 1433.38 4285.95 1428.95C4275.15 1310.2 4356.98 1213.16 4322.59 1165.66C4322.59 1165.66 4354.33 1142.83 4427.28 1131.92C4427.28 1131.92 4369.95 1262.23 4375.05 1295.08C4380.14 1327.93 4601.8 1298.37 4617.09 1280.3C4632.38 1262.24 4656.58 1123.88 4656.58 1123.88C4656.58 1123.88 4739.81 1134.76 4773.45 1170.95C4773.45 1170.95 4747.51 1212.73 4731.23 1262.83C4726.44 1277.54 4722.49 1292.95 4720.28 1308.22C4714.34 1349.12 4698.62 1427.04 4734.29 1488.34L4735 1547.53Z" fill="#A6D9F1"/>
<path d="M4591.6 2492.45C4564.78 2675.78 4560.83 2718.22 4534.15 2913.31C4368.52 2540.54 4392.88 2443.17 4392.88 2443.17L4591.6 2492.45Z" fill="#C0783D"/>
<path d="M5104.35 4138.21L5054.8 4160.91C5054.8 4160.91 4861.84 3455.29 4782.69 3346.54C4629.74 3136.39 4404.62 2220.06 4404.62 2220.06L4708.8 2092.77C4753.92 2149.17 4790.59 2254.68 4820.12 2378.92C4894.64 2692.44 4923.56 3125.1 4927.45 3187.74C4927.46 3187.79 4927.46 3187.84 4927.46 3187.89C4927.76 3192.75 4929.76 3196.91 4932.28 3200.53C5169.1 3540.34 5104.35 4138.21 5104.35 4138.21Z" fill="#CE8E55"/>
<path d="M4518.72 2533.86L4469.01 2517.12C4443.48 2506.18 4418.54 2498.76 4395.35 2493.76C4320.58 2477.63 4263.79 2486.96 4263.79 2486.96C4286.72 2170.78 4313.22 2095.01 4313.22 2095.01L4345.57 2092.77L4430.26 2318.91L4518.72 2533.86Z" fill="#ACD29A"/>
<path d="M4518.72 2533.86L4469.01 2517.11C4443.48 2506.17 4418.54 2498.75 4395.36 2493.76C4392.02 2433.05 4410.97 2368.01 4430.26 2318.9L4518.72 2533.86Z" fill="#88B374"/>
<path d="M4927.45 3187.74C4768.17 3027.17 4645.11 2489.16 4645.11 2489.16L4820.11 2378.92C4894.64 2692.43 4923.56 3125.09 4927.45 3187.74Z" fill="#C0783D"/>
<path d="M4319.95 2069.92C4319.95 2069.92 4392.88 2140.96 4466.76 2134.39C4540.65 2127.82 4756.36 2064.31 4756.36 2064.31C4756.36 2064.31 4796.32 2139.16 4824.3 2287.68C4853.18 2440.98 4855.4 2553.23 4855.4 2553.23C4855.4 2553.23 4600.1 2512.16 4498.18 2581.14L4319.95 2069.92Z" fill="#ACD29A"/>
<path d="M4548.1 802.794C4619.45 826.448 4650.39 801.804 4650.39 801.804C4650.39 801.804 4637.17 719.625 4584.31 647.908C4557.69 611.782 4435.43 609.084 4431.65 616.365C4420.53 604.066 4400.71 595.168 4374.51 636.113C4335.15 697.627 4370.18 806.367 4370.18 806.367C4386.33 808.796 4390.14 737.313 4398.61 702.587C4404.84 677.036 4425.27 650.965 4435.63 638.965C4439.04 655.128 4473.26 807.943 4558.48 858.735C4558.48 858.735 4519.22 813.82 4490.35 751.47C4506.88 775.656 4526.33 795.574 4548.1 802.794Z" fill="#2C3A64"/>
<path d="M4181.25 4251.53C4181.03 4251.83 4180.92 4251.99 4180.92 4251.99H4163.39C4164.9 4251.69 4166.45 4251.53 4168.03 4251.53H4181.25Z" fill="#2E3552"/>
<path d="M5188.29 2376.67C5175.68 2316.03 5125.84 2280.57 5076.97 2297.46C5064.47 2301.79 5053.25 2309.14 5043.68 2318.67L5024.42 2336.67C5024.42 2336.67 5004.1 2403.13 5011.32 2437.86C5023.94 2498.5 5133.83 2517.04 5133.83 2517.04L5155.65 2496.19L5155.64 2496.17C5183.69 2468.48 5197.71 2421.96 5188.29 2376.67Z" fill="#7298A6"/>
<path d="M5170.03 2393.8C5157.42 2333.16 5107.58 2297.7 5058.71 2314.6C5009.85 2331.49 4980.46 2394.35 4993.07 2454.99C5005.68 2515.63 5055.52 2551.09 5104.39 2534.2C5153.26 2517.3 5182.65 2454.44 5170.03 2393.8Z" fill="#90BBCA"/>
<path d="M5098.57 2423.39C5097.65 2409.85 5084.89 2396.46 5071.15 2403C5065.59 2405.65 4918.31 2524.49 4918.31 2524.49L4949.82 2574.79L5092.73 2443.24C5092.74 2443.24 5099.5 2437.13 5098.57 2423.39Z" fill="#658D98"/>
<path d="M4065.27 1222.04L4046.02 1204.03C4036.44 1194.5 4025.23 1187.15 4012.73 1182.83C3963.86 1165.93 3914.02 1201.39 3901.41 1262.04C3891.98 1307.33 3906 1353.85 3934.06 1381.54L3934.05 1381.56L3955.87 1402.4C3955.87 1402.4 4065.76 1383.86 4078.37 1323.22C4085.59 1288.5 4065.27 1222.04 4065.27 1222.04Z" fill="#7298A6"/>
<path d="M4030.98 1199.97C3982.11 1183.07 3932.28 1218.53 3919.66 1279.17C3907.05 1339.81 3936.44 1402.67 3985.3 1419.56C4034.17 1436.46 4084.01 1401 4096.62 1340.36C4109.24 1279.72 4079.85 1216.87 4030.98 1199.97Z" fill="#90BBCA"/>
<path d="M4018.54 1288.37C4004.81 1281.83 3992.04 1295.22 3991.13 1308.76C3990.2 1322.49 3996.96 1328.61 3996.96 1328.61L4139.88 1460.16L4171.39 1409.86C4171.39 1409.86 4024.11 1291.02 4018.54 1288.37Z" fill="#658D98"/>
<path d="M4009.16 1449.81C4009.16 1449.81 3956.6 1365.78 3994.44 1322.42C4032.28 1279.05 4081.34 1291.7 4082.74 1316.99C4084.14 1342.29 4065.92 1414.58 4065.92 1414.58L4009.16 1449.81Z" fill="#C0783D"/>
<path d="M5005.83 2323.82C5005.83 2323.82 5021.33 2370.9 5037.47 2384.04C5053.61 2397.18 5076.54 2428.94 5072.29 2454.12C5068.05 2479.3 5063.8 2518.72 5043.41 2518.72C5023.03 2518.72 4975.47 2402.66 4969.53 2380.76C4963.58 2358.86 4958.49 2354.48 4958.49 2354.48L5005.83 2323.82Z" fill="#CE8E55"/>
<path d="M5075.83 2485.48C5062.11 2419.51 5007.89 2380.93 4954.73 2399.31C4941.13 2404.02 4928.93 2412 4918.51 2422.38L4897.57 2441.96C4897.57 2441.96 4875.46 2514.26 4883.32 2552.04C4897.04 2618.01 5016.59 2638.18 5016.59 2638.18L5040.33 2615.51L5040.31 2615.48C5070.83 2585.36 5086.08 2534.75 5075.83 2485.48Z" fill="#7298A6"/>
<path d="M5055.98 2504.11C5042.26 2438.15 4988.04 2399.57 4934.88 2417.95C4881.72 2436.33 4849.74 2504.71 4863.47 2570.68C4877.19 2636.65 4931.41 2675.23 4984.57 2656.85C5037.73 2638.47 5069.7 2570.08 5055.98 2504.11Z" fill="#90BBCA"/>
<path d="M4991.3 2521.45C4986.84 2500.03 4969.24 2487.51 4951.98 2493.48C4947.57 2495.01 4943.61 2497.6 4940.23 2500.97L4933.43 2507.33L4934.26 2508.69C4928.57 2518.27 4926.25 2530.79 4928.8 2543.06C4933.25 2564.48 4950.86 2577.01 4968.12 2571.03C4969.2 2570.66 4970.25 2570.22 4971.28 2569.73L4972.07 2571.03L4979.77 2563.66L4979.77 2563.66C4989.68 2553.88 4994.63 2537.45 4991.3 2521.45Z" fill="#7298A6"/>
<path d="M4984.86 2527.5C4980.4 2506.08 4962.8 2493.56 4945.54 2499.53C4928.28 2505.5 4917.9 2527.7 4922.35 2549.11C4926.81 2570.53 4944.41 2583.06 4961.67 2577.09C4978.93 2571.12 4989.31 2548.92 4984.86 2527.5Z" fill="#7AACBB"/>
<path d="M4013.86 1370.85C4027.58 1304.88 4081.8 1266.3 4134.96 1284.68C4148.56 1289.39 4160.76 1297.38 4171.18 1307.75L4192.12 1327.34C4192.12 1327.34 4214.23 1399.63 4206.37 1437.41C4192.65 1503.38 4073.1 1523.55 4073.1 1523.55L4049.37 1500.87L4049.38 1500.85C4018.86 1470.73 4003.61 1420.12 4013.86 1370.85Z" fill="#7298A6"/>
<path d="M4154.82 1303.32C4101.66 1284.94 4047.44 1323.51 4033.72 1389.49C4020 1455.45 4051.97 1523.83 4105.13 1542.21C4158.29 1560.6 4212.51 1522.02 4226.23 1456.05C4239.95 1390.09 4207.98 1321.7 4154.82 1303.32Z" fill="#90BBCA"/>
<path d="M4155.44 1394.06L4156.27 1392.69L4149.47 1386.33C4146.09 1382.97 4142.13 1380.37 4137.71 1378.85C4120.46 1372.88 4102.85 1385.4 4098.4 1406.82C4095.07 1422.82 4100.02 1439.25 4109.93 1449.03L4109.93 1449.03L4117.63 1456.39L4118.42 1455.09C4119.45 1455.59 4120.5 1456.03 4121.58 1456.4C4138.84 1462.37 4156.44 1449.85 4160.9 1428.43C4163.45 1416.16 4161.13 1403.65 4155.44 1394.06Z" fill="#7298A6"/>
<path d="M4144.16 1384.89C4126.9 1378.93 4109.3 1391.45 4104.84 1412.87C4100.39 1434.29 4110.77 1456.48 4128.03 1462.45C4145.29 1468.42 4162.89 1455.9 4167.35 1434.48C4171.8 1413.06 4161.42 1390.86 4144.16 1384.89Z" fill="#7AACBB"/>
<path d="M4279.04 4251.53H4243.29C4231.32 4249.1 4222.48 4244.64 4210.2 4242.56C4191.55 4239.41 4182.96 4249.27 4181.26 4251.53C4181.03 4251.83 4180.93 4251.99 4180.93 4251.99H4029.08C4025.25 4244.96 4028.92 4228.67 4032.52 4216.68C4034.94 4208.53 4040.21 4202.36 4046.73 4199.92C4062.83 4193.91 4094.58 4188.56 4123.65 4154.62C4140.01 4135.57 4202.63 4084.56 4202.63 4084.56L4202.96 4084.46C4204.34 4084.49 4210.89 4087.09 4239.37 4118.1C4254.1 4134.1 4279.19 4095.5 4279.19 4095.5C4279.19 4095.5 4283.9 4100.52 4287.42 4109.88C4290.25 4117.27 4292.31 4127.42 4290.68 4139.94C4288.42 4157.58 4295.73 4190.36 4301.56 4212.54C4305.1 4225.97 4308.08 4235.5 4308.08 4235.5C4308.08 4235.5 4309.79 4246.57 4279.04 4251.53Z" fill="#ACD29A"/>
<path d="M4287.42 4109.88C4278.88 4117.64 4260.87 4132.92 4248.92 4134.92C4232.8 4137.65 4202.63 4084.56 4202.63 4084.56L4202.96 4084.46C4204.34 4084.5 4210.88 4087.09 4239.37 4118.1C4254.09 4134.1 4279.19 4095.5 4279.19 4095.5C4279.19 4095.5 4283.9 4100.53 4287.42 4109.88Z" fill="#88B374"/>
<path d="M4279.04 4251.53H4243.29C4231.32 4249.1 4222.48 4244.64 4210.2 4242.56C4191.55 4239.41 4182.96 4249.27 4181.26 4251.53C4181.03 4251.83 4180.93 4251.99 4180.93 4251.99H4029.08C4025.25 4244.96 4028.92 4228.67 4032.52 4216.68C4037.13 4211.39 4038.43 4239.64 4040.97 4244.14C4043.52 4248.64 4164.85 4245.78 4171.85 4239.21C4178.86 4232.64 4199.88 4221.14 4229.18 4230.18C4254.68 4238.03 4292.27 4217.89 4301.56 4212.54C4305.11 4225.97 4308.09 4235.5 4308.09 4235.5C4308.09 4235.5 4309.79 4246.57 4279.04 4251.53Z" fill="#88B374"/>
<path d="M5107.61 4251.53H5071.86C5059.89 4249.1 5051.05 4244.64 5038.76 4242.56C5020.12 4239.41 5011.53 4249.27 5009.82 4251.53C5009.59 4251.83 5009.49 4251.99 5009.49 4251.99H4857.64C4853.82 4244.96 4857.49 4228.67 4861.08 4216.68C4863.5 4208.53 4868.78 4202.36 4875.3 4199.92C4891.4 4193.91 4923.14 4188.56 4952.21 4154.62C4968.57 4135.57 5031.2 4084.56 5031.2 4084.56L5031.53 4084.46C5032.9 4084.49 5039.45 4087.09 5067.93 4118.1C5082.66 4134.1 5107.76 4095.5 5107.76 4095.5C5107.76 4095.5 5112.47 4100.52 5115.99 4109.88C5118.82 4117.27 5120.88 4127.42 5119.25 4139.94C5116.98 4157.58 5124.29 4190.36 5130.13 4212.54C5133.67 4225.97 5136.65 4235.5 5136.65 4235.5C5136.65 4235.5 5138.36 4246.57 5107.61 4251.53Z" fill="#ACD29A"/>
<path d="M5115.99 4109.88C5107.45 4117.64 5089.44 4132.92 5077.49 4134.92C5061.36 4137.65 5031.2 4084.56 5031.2 4084.56L5031.53 4084.46C5032.9 4084.5 5039.45 4087.09 5067.93 4118.1C5082.66 4134.1 5107.76 4095.5 5107.76 4095.5C5107.76 4095.5 5112.47 4100.53 5115.99 4109.88Z" fill="#88B374"/>
<path d="M5107.61 4251.53H5071.86C5059.89 4249.1 5051.05 4244.64 5038.76 4242.56C5020.12 4239.41 5011.53 4249.27 5009.82 4251.53C5009.59 4251.83 5009.49 4251.99 5009.49 4251.99H4857.64C4853.82 4244.96 4857.49 4228.67 4861.08 4216.68C4865.69 4211.39 4866.99 4239.64 4869.54 4244.14C4872.09 4248.64 4993.41 4245.78 5000.42 4239.21C5007.43 4232.64 5028.44 4221.14 5057.74 4230.18C5083.25 4238.03 5120.83 4217.89 5130.13 4212.54C5133.67 4225.97 5136.65 4235.5 5136.65 4235.5C5136.65 4235.5 5138.36 4246.57 5107.61 4251.53Z" fill="#88B374"/>
<path d="M4736.99 1710.01C4736.99 1710.01 4626.34 1668.55 4508.2 1655.91C4508.2 1655.91 4631.67 1675.19 4734.75 1547.87C4734.83 1547.77 4734.93 1547.67 4735 1547.54L4736.99 1710.01Z" fill="#7DABBD"/>
<path d="M4313.22 2095.01C4313.22 2095.01 4379.38 2157.51 4449.48 2160.04C4519.57 2162.57 4765.87 2084.87 4765.87 2084.87L4755.72 2060.17C4755.72 2060.17 4485.72 2153.29 4422.4 2125.69C4359.08 2098.11 4321.59 2064.65 4321.59 2064.65L4313.22 2095.01Z" fill="#88B374"/>
<path d="M8803.32 4253.54C8803.56 4253.83 8803.66 4254 8803.66 4254H8821.19C8819.68 4253.7 8818.13 4253.54 8816.55 4253.54H8803.32Z" fill="#2E3552"/>
<path d="M6774.02 4223.5C6750.63 4171.43 6723.43 4076.11 6723.43 4076.11C6723.43 4076.11 6692.85 3648.46 6669.28 3534.52C6645.72 3420.59 6577.97 2904.07 6577.97 2904.07L6345.26 2911.67C6345.26 2911.67 6507.28 3454.77 6519.06 3545.92C6530.84 3637.07 6673.01 4079.45 6673.01 4079.45C6661.81 4117.23 6691.11 4168.34 6691.11 4168.34C6704.51 4215.67 6735.89 4236.86 6760.11 4246.32C6770.58 4250.41 6779.5 4235.7 6774.02 4223.5Z" fill="#C0783D"/>
<path d="M6335.61 2881.03L6376.98 3039.38C6376.98 3039.38 6515.3 3016.04 6603.21 3054.38L6585.11 2879.37L6335.61 2881.03Z" fill="#CA5F00"/>
<path d="M7328.98 2811.82C7328.98 2811.82 7322.71 2886.98 7297.23 2900.33C7297.23 2900.33 7328.4 2848.75 7317.86 2807.28C7307.32 2765.82 7250.54 2742.2 7231.94 2742.23C7213.33 2742.26 7153.57 2766.27 7148.71 2792.77C7146.87 2802.8 7147.48 2814.32 7148.96 2824.76C7140.39 2817.86 7130.94 2811.11 7120.4 2804.68C7022.88 2745.2 6928.66 2809.42 6939.6 2860.83C6946.61 2893.8 6902.92 2903.8 6902.92 2903.8L7107.52 3222.11C7107.52 3222.11 7295.86 3101.29 7241.41 2973.31C7248.62 2972.87 7326.28 2964.52 7328.98 2811.82Z" fill="#942E2A"/>
<path d="M6724.06 3041.01C6723.67 3041.67 6707.96 2961.16 6729.3 2910.73C6749.34 2863.28 6774.34 2803.02 6774.32 2803.75C6773.69 2826.25 6827.55 2882.12 6926.02 2911.69L6922.75 2920.95L6867.69 3076.58C6867.69 3076.58 6828.52 3060.7 6791 3049.13C6759.49 3039.39 6729.14 3032.73 6724.06 3041.01Z" fill="#CE8E55"/>
<path d="M6867.69 3076.57C6867.69 3076.57 6828.52 3060.7 6791 3049.12C6809.77 2958.36 6883.29 2929.8 6922.75 2920.95L6867.69 3076.57Z" fill="#C0783D"/>
<path d="M6939.64 2908.29C6939.64 2908.29 7007.11 2878.32 7059.4 2882.14C7096.73 2884.87 7225.19 2948.92 7174.48 3115.12C7174.48 3115.12 7161.49 3163.93 7128.26 3203.38C7101.84 3234.77 7049.69 3275.78 6944.89 3180.14L6908.62 3152.54L6939.64 2908.29Z" fill="#942E2A"/>
<path d="M6826.54 3096.24C6826.54 3096.24 6863.47 2879.21 6967.94 2910.94C7072.41 2942.67 7147.54 2936.03 7128.38 3075.94C7109.21 3215.84 7064.45 3230.56 7027.58 3230.9C6990.71 3231.25 6819.63 3153.51 6826.54 3096.24Z" fill="#CE8E55"/>
<path d="M7112.85 3175.18C7112.85 3175.18 7001.19 3078.58 6999.75 2982.22C6998.31 2885.85 7024.42 2852.21 7024.42 2852.21C7024.42 2852.21 7054.56 2934.99 7126.84 2972.32C7126.84 2972.32 7179.37 3148.33 7112.85 3175.18Z" fill="#942E2A"/>
<path d="M5650.96 3515.57C5650.44 3507.24 5649.94 3499.04 5649.52 3490.99C5649.94 3499.1 5650.44 3507.3 5650.96 3515.57Z" fill="#739CF3"/>
<path d="M6026.86 2277.92C6015.58 2309.96 6004.67 2347.65 5994.15 2390.01C5984.88 2427.5 5975.96 2468.64 5967.31 2512.64C5966 2519.4 5964.68 2526.19 5963.39 2533.12C5940.55 2653.47 5920.04 2793.82 5901.97 2939.97C5890.22 3034.85 5879.53 3132.14 5869.81 3228.01C5869.67 3229.65 5869.49 3231.31 5869.35 3232.95C5860.45 3321.32 5852.4 3408.45 5845.26 3491.22C5751.77 3524.74 5685.48 3507.85 5649.52 3491C5643.56 3379.52 5646.36 3283.16 5666.64 3235.67C5704.52 3146.85 5589.45 2443.75 5670.87 2214.09C5752.29 1984.44 5971.49 2097.07 5971.49 2097.07L6026.86 2277.92Z" fill="#739CF3"/>
<path d="M6970.51 4223.5C6947.12 4171.43 6919.93 4076.11 6919.93 4076.11C6919.93 4076.11 6864.64 3643.34 6841.07 3529.41C6817.51 3415.47 6779.64 2904.08 6779.64 2904.08L6546.93 2911.67C6546.93 2911.67 6708.94 3454.77 6720.72 3545.92C6732.51 3637.07 6869.51 4079.45 6869.51 4079.45C6858.31 4117.23 6887.61 4168.34 6887.61 4168.34C6901.01 4215.67 6932.39 4236.86 6956.61 4246.33C6967.08 4250.41 6976 4235.7 6970.51 4223.5Z" fill="#CE8E55"/>
<path d="M6795.82 2836.03C6795.63 2835.71 6795.37 2835.42 6795.15 2835.11C6793.61 2819.08 6788.88 2801.66 6780.31 2782.7C6701.55 2608.33 6504.35 2426.91 6284.58 2278.53L5975.67 2103.94C5924.3 2073.92 6044.73 2444.91 6044.73 2444.91C6053.09 2456.57 6061.01 2468.56 6068.63 2480.81C6101.98 2534.39 6129.04 2592.53 6156.88 2648.94C6181.88 2699.49 6207.54 2748.67 6238.95 2791.93C6250.87 2808.29 6263.59 2823.83 6277.42 2838.25C6315.56 2878.03 6348.3 2911.14 6375.03 2937.68C6430.76 2992.91 6501.32 3017.36 6570.95 3004.95C6579.16 3025.57 6587.44 3050.13 6595.44 3079.38C6595.44 3079.38 6709.2 3036.05 6797.11 3074.38C6797.12 3074.38 6826.85 2886.03 6795.82 2836.03Z" fill="#E69D43"/>
<path d="M6555.49 2932.56C6555.49 2932.56 6545.4 2823.82 6421.43 2760.33C6322.84 2709.82 6253.24 2554.11 6228.86 2492.42C6195.57 2292.18 6116.28 2215.99 6116.28 2215.99L6068.63 2480.81C6101.97 2534.37 6129.03 2592.5 6156.9 2648.91L6156.89 2648.94C6160.93 2657.11 6165 2665.21 6169.09 2673.29C6170.6 2676.28 6172.12 2679.25 6173.64 2682.22C6174.8 2684.46 6175.95 2686.71 6177.11 2688.94C6179.43 2693.4 6181.76 2697.83 6184.11 2702.25C6184.97 2703.85 6185.82 2705.45 6186.69 2707.05C6189.26 2711.83 6191.85 2716.57 6194.48 2721.28C6195.18 2722.53 6195.88 2723.77 6196.58 2725.02C6199.36 2729.95 6202.18 2734.85 6205.03 2739.71C6205.61 2740.7 6206.19 2741.67 6206.78 2742.65C6209.76 2747.68 6212.79 2752.66 6215.87 2757.59C6216.35 2758.35 6216.84 2759.11 6217.32 2759.87C6220.53 2764.95 6223.78 2769.98 6227.11 2774.94C6227.47 2775.48 6227.84 2776 6228.2 2776.54C6231.56 2781.51 6234.98 2786.42 6238.48 2791.26C6238.64 2791.48 6238.79 2791.71 6238.95 2791.93C6250.88 2808.29 6263.59 2823.83 6277.42 2838.25C6315.56 2878.03 6348.3 2911.14 6375.03 2937.68C6430.85 2993 6501.55 3017.44 6571.29 3004.89L6555.49 2932.56Z" fill="#D57912"/>
<path d="M5994.16 2389.99C5984.88 2427.5 5975.96 2468.64 5967.33 2512.63C5966.01 2519.4 5964.69 2526.2 5963.39 2533.1C5940.54 2653.48 5920.04 2793.82 5901.96 2939.97C5890.22 3034.84 5879.52 3132.15 5869.82 3228.02C5869.67 3229.66 5869.49 3231.32 5869.33 3232.95C5685.74 2352.89 5829.16 2349.33 5829.16 2349.33L5994.16 2389.99Z" fill="#6488D3"/>
<path d="M6194.69 2939.36C6191.78 3112.49 6193.92 3281.46 6198.42 3434.11C6198.45 3434.88 6198.47 3435.65 6198.49 3436.42C6198.52 3436.87 6198.52 3437.32 6198.55 3437.77C6116.48 3484.77 6039.39 3482.28 5996.89 3475.35C5996.84 3475 5996.76 3474.62 5996.71 3474.26C5996.69 3474.1 5996.66 3473.91 5996.64 3473.75C5981.58 3381.05 5976.01 3300.78 5988.66 3253.48C6005.29 3191.22 5947.48 3006.65 5907.69 2734.35L5840.49 2607.68C5782.31 2461.02 5776.94 2394.01 5796.53 2309.32C5818.5 2214.32 5941.59 2126.35 5971.49 2097.07C5971.49 2097.07 5991.12 2108.92 6018.88 2124.53C6138.87 2191.95 6212.61 2350.88 6205.93 2519.43C6201.13 2639.91 6197.33 2782.83 6194.69 2939.36Z" fill="#739CF3"/>
<path d="M5845.27 3491.21C5816.78 3820.73 5802.3 4081.58 5802.3 4081.58L5738.79 4171.12C5738.79 4171.12 5663.38 3750.69 5649.52 3491C5685.48 3507.84 5751.77 3524.74 5845.27 3491.21Z" fill="#CE8E55"/>
<path d="M5725.1 4251.13H5761.37C5773.53 4248.66 5782.5 4244.12 5794.96 4242.03C5813.89 4238.82 5822.6 4248.82 5824.33 4251.13C5824.56 4251.43 5824.67 4251.59 5824.67 4251.59H5978.76C5982.64 4244.46 5978.92 4227.93 5975.27 4215.76C5972.82 4207.49 5967.47 4201.22 5960.85 4198.75C5944.51 4192.65 5912.29 4187.22 5882.79 4152.78C5866.19 4133.45 5802.64 4081.68 5802.64 4081.68L5802.3 4081.58C5800.91 4081.62 5794.26 4084.25 5765.36 4115.72C5750.41 4131.95 5724.95 4092.78 5724.95 4092.78C5724.95 4092.78 5720.16 4097.88 5716.6 4107.38C5713.72 4114.88 5711.63 4125.18 5713.28 4137.89C5715.59 4155.79 5708.16 4189.06 5702.25 4211.56C5698.65 4225.19 5695.63 4234.86 5695.63 4234.86C5695.63 4234.86 5693.89 4246.09 5725.1 4251.13Z" fill="#D8716B"/>
<path d="M5716.59 4107.38C5725.25 4115.25 5743.53 4130.75 5755.66 4132.79C5772.03 4135.55 5802.64 4081.68 5802.64 4081.68L5802.3 4081.58C5800.9 4081.62 5794.26 4084.25 5765.35 4115.72C5750.41 4131.95 5724.94 4092.78 5724.94 4092.78C5724.94 4092.78 5720.16 4097.88 5716.59 4107.38Z" fill="#AA3F3A"/>
<path d="M5725.1 4251.13H5761.37C5773.53 4248.66 5782.5 4244.13 5794.96 4242.03C5813.89 4238.83 5822.6 4248.83 5824.33 4251.13C5824.56 4251.43 5824.67 4251.6 5824.67 4251.6H5978.76C5982.64 4244.46 5978.92 4227.93 5975.27 4215.76C5970.6 4210.39 5969.28 4239.06 5966.69 4243.63C5964.11 4248.19 5840.98 4245.3 5833.87 4238.62C5826.77 4231.96 5805.43 4220.29 5775.7 4229.46C5749.82 4237.43 5711.68 4216.99 5702.25 4211.56C5698.65 4225.19 5695.63 4234.86 5695.63 4234.86C5695.63 4234.86 5693.89 4246.09 5725.1 4251.13Z" fill="#AA3F3A"/>
<path d="M6235.24 4088.2L6186.12 4185.29C6186.12 4185.29 6039.29 3735.87 5996.89 3475.35C6036.11 3480.15 6110.96 3487.02 6198.55 3437.77C6209.51 3810.29 6235.24 4088.2 6235.24 4088.2Z" fill="#CE8E55"/>
<path d="M6156.88 4251.13H6193.16C6205.31 4248.66 6214.28 4244.12 6226.74 4242.03C6245.67 4238.82 6254.38 4248.82 6256.11 4251.13C6256.35 4251.43 6256.45 4251.59 6256.45 4251.59H6410.55C6414.43 4244.46 6410.7 4227.93 6407.06 4215.76C6404.6 4207.49 6399.25 4201.22 6392.63 4198.75C6376.29 4192.65 6344.07 4187.22 6314.57 4152.78C6297.97 4133.45 6234.42 4081.68 6234.42 4081.68L6234.09 4081.58C6232.69 4081.62 6226.04 4084.25 6197.14 4115.72C6182.19 4131.95 6156.73 4092.78 6156.73 4092.78C6156.73 4092.78 6151.94 4097.88 6148.38 4107.38C6145.51 4114.88 6143.41 4125.18 6145.07 4137.89C6147.37 4155.79 6139.95 4189.06 6134.03 4211.56C6130.43 4225.19 6127.41 4234.86 6127.41 4234.86C6127.41 4234.86 6125.67 4246.09 6156.88 4251.13Z" fill="#D8716B"/>
<path d="M6148.37 4107.38C6157.03 4115.25 6175.32 4130.75 6187.44 4132.79C6203.81 4135.55 6234.42 4081.68 6234.42 4081.68L6234.08 4081.58C6232.68 4081.62 6226.04 4084.25 6197.14 4115.72C6182.19 4131.95 6156.72 4092.78 6156.72 4092.78C6156.72 4092.78 6151.94 4097.88 6148.37 4107.38Z" fill="#AA3F3A"/>
<path d="M6156.88 4251.13H6193.16C6205.31 4248.66 6214.28 4244.13 6226.74 4242.03C6245.67 4238.83 6254.38 4248.83 6256.11 4251.13C6256.35 4251.43 6256.45 4251.6 6256.45 4251.6H6410.55C6414.43 4244.46 6410.7 4227.93 6407.06 4215.76C6402.38 4210.39 6401.06 4239.06 6398.47 4243.63C6395.89 4248.19 6272.77 4245.3 6265.66 4238.62C6258.55 4231.96 6237.22 4220.29 6207.48 4229.46C6181.6 4237.43 6143.47 4216.99 6134.03 4211.56C6130.43 4225.19 6127.41 4234.86 6127.41 4234.86C6127.41 4234.86 6125.67 4246.09 6156.88 4251.13Z" fill="#AA3F3A"/>
<path d="M11107.2 4279.7H10.7613C4.84381 4279.7 0 4273.46 0 4265.83C0 4258.2 4.84381 4251.95 10.7613 4251.95H11107.2C11113.2 4251.95 11118 4258.2 11118 4265.83C11118 4273.46 11113.2 4279.7 11107.2 4279.7Z" fill="#2E3552"/>
<path d="M2969.05 947.575L2799.24 3715.73L2798.12 3733.99C2789.56 3873.47 2694.04 3978.56 2585.86 3967.52L2194.37 3927.61C2086.16 3916.57 2004.66 3793.42 2013.22 3653.94L2184.15 867.521C2192.71 728.042 2288.23 622.923 2396.41 633.962L2576.13 652.294L2787.9 673.907C2896.11 684.911 2977.61 808.064 2969.05 947.575Z" fill="#E69D43"/>
<path d="M2925.3 3719.34V4129.86C2925.3 4197.66 2882.3 4253.11 2829.74 4253.11H1979.28C1926.72 4253.11 1883.71 4197.66 1883.71 4129.86V3719.34C1883.71 3651.57 1926.72 3596.12 1979.28 3596.12H2829.74C2882.3 3596.12 2925.3 3651.57 2925.3 3719.34Z" fill="#E2923D"/>
<path d="M2969.05 947.576L2799.24 3715.73C2682.25 3696.22 2574.47 3596.12 2574.47 3596.12C2574.47 3596.12 2700.46 1572.64 2736.13 1119.31C2764.52 758.692 2631.65 672.463 2576.13 652.295L2787.91 673.908C2896.11 684.912 2977.62 808.065 2969.05 947.576Z" fill="#D57912"/>
<path d="M2925.31 3719.34V4129.86C2925.31 4197.66 2882.3 4253.11 2829.74 4253.11H2728.87L2574.47 3596.12H2829.74C2882.3 3596.12 2925.31 3651.57 2925.31 3719.34Z" fill="#D57912"/>
<path d="M10318 3463.71H9675.19C9651.65 3463.71 9632.39 3488.54 9632.39 3518.89V4200.42C9632.39 4230.77 9651.65 4255.6 9675.19 4255.6H10318C10341.6 4255.6 10360.8 4230.77 10360.8 4200.42V3518.89C10360.8 3488.54 10341.6 3463.71 10318 3463.71Z" fill="#D57912"/>
<path d="M10004.4 3463.71L9925.39 3795.29L9632.39 3535.78V3518.89C9632.39 3488.54 9651.65 3463.71 9675.19 3463.71H10004.4Z" fill="#CB6900"/>
<path d="M10601.4 3463.71H9958.59C9935.05 3463.71 9915.79 3488.54 9915.79 3518.9V4200.4C9915.79 4230.76 9935.05 4255.59 9958.59 4255.59H10601.4C10625 4255.59 10644.2 4230.76 10644.2 4200.4V3518.9C10644.2 3488.54 10625 3463.71 10601.4 3463.71Z" fill="#E69D43"/>
<path d="M9921.06 2110.17C9899.1 2161.97 9844.41 2192.03 9779.75 2214.89C9772.54 2217.42 9765.22 2219.9 9757.79 2222.28C9644.47 2258.76 9492.63 2237.81 9448.64 2313.78C9399.79 2398.21 9341.63 2841.56 9341.63 2841.56C9271.62 2877.5 9272.41 2859.9 9272.41 2859.9C9250.91 2740.06 9249.28 2375.59 9254.38 2275.2C9260.18 2159.88 9443.9 1998.07 9601.92 1879.59C9722.63 1789.03 9828.37 1723.75 9828.37 1723.75C9831.65 1724.63 9834.89 1725.6 9838.03 1726.62C9977.3 1772.19 9981.49 1967.62 9921.06 2110.17Z" fill="#B9774E"/>
<path d="M9838.03 1726.62C9823.09 1887.95 9799.06 2126.32 9779.75 2214.89C9772.54 2217.42 9765.22 2219.9 9757.79 2222.28C9757.79 2222.19 9757.76 2222.04 9757.76 2221.94C9735.91 2052.88 9625.61 1908.92 9601.92 1879.59C9722.63 1789.03 9828.37 1723.75 9828.37 1723.75C9831.65 1724.63 9834.9 1725.6 9838.03 1726.62Z" fill="#6488D3"/>
<path d="M10542.4 3138.75C10533.7 3060.4 10522.1 2992.11 10508.7 2929.61C10463.8 2720.37 10398.1 2575.44 10350.5 2333.22C10274.3 1948.94 10164.9 1688.29 10024 1625.02C10023.7 1624.88 10023.3 1624.73 10022.8 1624.58C10011.7 1620.18 9922.23 1581.51 9857.94 1451.58C9854.48 1444.57 9851.12 1437.33 9847.84 1429.84C9841.12 1414.56 9834.78 1398.13 9829.01 1380.47C9826.3 1372.35 9823.73 1363.98 9821.28 1355.37L9713.7 1589.42C9713.7 1589.42 9727.54 1633.77 9759.49 1706.53C9763.52 1715.69 9767.83 1725.3 9772.44 1735.33C9772.16 1735.37 9771.88 1735.43 9771.6 1735.47L9744.78 1793.21C9708.45 1875.79 9684.04 2070.15 9720.67 2199.23C9931.09 2941.1 10030.4 2939.59 10032.5 2948.24C10033.7 2953.6 10037.3 2959.53 10042.8 2965.85C10117.3 3050.82 10550.3 3209.91 10542.4 3138.75Z" fill="#B9774E"/>
<path d="M9759.49 1706.53C9727.54 1633.77 9713.7 1589.42 9713.7 1589.42L9821.28 1355.37C9823.73 1363.98 9826.3 1372.35 9829.01 1380.47C9840.52 1440.34 9855.16 1586.06 9759.49 1706.53Z" fill="#AF6F4A"/>
<path d="M9692.29 1622.87C9692.29 1622.87 9882.33 1493.62 9818.08 1342.27C9753.83 1190.93 9735.08 1072.32 9611.03 1148.44C9486.99 1224.57 9488.13 1298.82 9500.04 1356.05C9511.96 1413.3 9641.2 1652.59 9692.29 1622.87Z" fill="#B9774E"/>
<path d="M9822.49 1352.74C9822.49 1352.74 9711.81 1174.14 9540.86 1295.64C9423.77 1378.86 9420.64 1202.9 9422.08 1173.13C9422.08 1173.13 9514.25 1114.03 9610.39 1056.59C9812.16 936.02 9824.81 1307.77 9822.49 1352.74Z" fill="#2C3A64"/>
<path d="M10084.7 3285.89C10034.6 3294.5 9961.82 3294.59 9881.8 3291.57C9664.01 3283.29 9390.99 3251.46 9374.99 3307.04C9270.5 3669.7 8894.93 3954.77 8888.33 4089.28C8889.56 4097.99 8792.94 4031.3 8795.97 4028.51C8795.97 4028.51 8826.55 4012.09 9129.66 2949.08C9157.48 2851.52 9473.82 2814.33 9665.21 2794.66C9787.45 2782.04 9882.76 2777.18 9882.76 2777.18C9882.76 2777.18 10013.2 2749.16 10146.8 2761.18C10280.4 2773.21 10271.1 3253.89 10084.7 3285.89Z" fill="#AF6F4A"/>
<path d="M9272.41 2859.9C9272.41 2859.9 9367.01 2903.98 9407.24 2878.04C9447.47 2852.1 9412.27 2785.1 9385.45 2785.1C9358.62 2785.1 9299.24 2786.41 9272.41 2859.9Z" fill="#9F5E3F"/>
<path d="M10137.5 3285.88C10087.4 3294.49 10014.6 3294.59 9934.6 3291.57C9954.18 3210.06 10005.7 3063.19 9929.75 2954.34C9929.75 2954.34 9847.09 2807.81 9780.7 2783.93C9902.93 2771.33 9935.58 2777.18 9935.58 2777.18C9935.58 2777.18 10066.1 2749.17 10199.6 2761.18C10333.2 2773.2 10323.9 3253.88 10137.5 3285.88Z" fill="#942E2A"/>
<path d="M10508.7 2929.61L10506.5 2932.04L10042.8 2965.84C10037.3 2959.53 10033.7 2953.59 10032.5 2948.23C10032.2 2946.85 10029.4 2945.77 10024.2 2941.92C10009.4 2931.12 9974.77 2898.6 9919.13 2777.38C9869.8 2669.93 9803.94 2492.78 9720.67 2199.23C9684.04 2070.13 9708.45 1875.8 9744.78 1793.21C9744.78 1793.21 9771.35 1812.2 9804.47 1791.47C9884.45 1741.44 10018.5 1622.73 10024 1625.03C10164.9 1688.29 10274.3 1948.96 10350.5 2333.23C10398.1 2575.43 10463.8 2720.39 10508.7 2929.61Z" fill="#739CF3"/>
<path d="M10234.2 2195.52L10006.9 2470.54L9868.13 2194.8L9919.12 2777.38C9974.77 2898.59 10009.4 2931.12 10024.2 2941.92C10152.6 2951.29 10339 2947.54 10354 2849.22C10376.9 2698.12 10234.2 2195.52 10234.2 2195.52Z" fill="#6488D3"/>
<path d="M10435.9 3444.52C10019 3572.56 9629.49 3254.74 9615.04 3345.48C9570.25 3626.63 9343.96 4034.1 9338.66 4082.72C9337.87 4089.87 9238.87 4100.78 9238.87 4100.78C9238.87 4100.78 9336.42 3107.68 9418.87 2979.07C9504.01 2846.26 10269.7 2899.71 10269.7 2899.71C10568.3 2823.43 10621.2 3387.62 10435.9 3444.52Z" fill="#B9774E"/>
<path d="M9946.31 2888.64C9946.31 2888.64 10150.1 3160.65 10172.7 3187.39C10195.3 3214.15 10282.1 3204.42 10282.1 3204.42C10282.1 3204.42 10187.2 3220.63 10187.2 3241.71C10187.2 3262.78 10247.5 3486.51 10270.2 3486.51C10292.8 3486.51 10461.3 3473.54 10501.5 3447.6C10541.8 3421.66 10594.6 3133.08 10512.8 2902.87L10447.1 2698.59C10447.1 2698.59 10354 2874.41 9946.31 2888.64Z" fill="#A9453D"/>
<path d="M9949.95 2455.11C9931.33 2365.59 9857.75 2313.25 9785.62 2338.19C9767.16 2344.57 9750.6 2355.42 9736.47 2369.49L9708.05 2396.08C9708.05 2396.08 9678.05 2494.17 9688.72 2545.44C9707.33 2634.96 9869.56 2662.33 9869.56 2662.33L9901.77 2631.56L9901.75 2631.53C9943.16 2590.65 9963.85 2521.97 9949.95 2455.11Z" fill="#942E2A"/>
<path d="M9826.32 2688.2C9898.46 2663.26 9941.85 2570.47 9923.23 2480.95C9904.62 2391.43 9831.04 2339.08 9758.9 2364.02C9686.76 2388.96 9643.38 2481.75 9661.99 2571.27C9680.61 2660.79 9754.18 2713.14 9826.32 2688.2Z" fill="#B84C42"/>
<path d="M9817.51 2524.08C9816.15 2504.09 9797.31 2484.33 9777.03 2493.98C9768.82 2497.89 9551.4 2673.32 9551.4 2673.32L9597.92 2747.57L9808.9 2553.38C9808.9 2553.38 9818.88 2544.36 9817.51 2524.08Z" fill="#882529"/>
<path d="M10243.7 2883.41C10145.6 3009.82 9695.51 2649.95 9695.51 2649.95L9746.44 2535.65L10040 2624.03C9957.91 2469.46 9903.44 2317.32 9868.13 2194.8C9822.3 2035.91 9808.68 1926.86 9808.68 1926.86C9783.52 1797.2 10005.1 1633 10113 1764.75C10149 1808.72 10184.4 1933.53 10214.7 2085.37C10275.2 2388.72 10309.1 2799.17 10243.7 2883.41Z" fill="#B9774E"/>
<path d="M10202.5 2018.79C10098.7 2050.29 9893.34 2121.05 9868.14 2194.8C9868.14 2194.8 10059.8 2088.73 10246.9 2262.07L10202.5 2018.79Z" fill="#AF6F4A"/>
<path d="M10216.7 2085.61C10018.8 2061.73 9888.69 2175.44 9868.13 2194.8C9822.29 2035.9 9808.67 1926.86 9808.67 1926.86C9783.52 1797.19 10005.1 1633 10113 1764.75C10149 1808.72 10186.4 1933.77 10216.7 2085.61Z" fill="#739CF3"/>
<path d="M8908.29 4251.69H8856.84C8839.6 4248.19 8826.88 4241.76 8809.2 4238.78C8782.36 4234.24 8770 4248.43 8767.54 4251.69C8767.21 4252.11 8767.07 4252.35 8767.07 4252.35H8548.5C8543 4242.23 8548.28 4218.78 8553.45 4201.52C8556.93 4189.8 8564.53 4180.91 8573.91 4177.41C8597.09 4168.76 8642.78 4161.06 8684.63 4112.21C8708.17 4084.78 8798.31 4011.36 8798.31 4011.36L8798.79 4011.21C8800.76 4011.26 8810.19 4015 8851.19 4059.63C8872.39 4082.66 8908.51 4027.1 8908.51 4027.1C8908.51 4027.1 8915.29 4034.34 8920.35 4047.81C8924.42 4058.45 8927.39 4073.06 8925.05 4091.07C8921.78 4116.46 8932.31 4163.65 8940.71 4195.56C8945.81 4214.9 8950.09 4228.61 8950.09 4228.61C8950.09 4228.61 8952.55 4244.55 8908.29 4251.69Z" fill="#2C3A64"/>
<path d="M8920.35 4047.81C8908.07 4058.97 8882.14 4080.96 8864.94 4083.84C8841.73 4087.76 8798.31 4011.36 8798.31 4011.36L8798.78 4011.21C8800.76 4011.26 8810.19 4015 8851.19 4059.63C8872.38 4082.66 8908.5 4027.1 8908.5 4027.1C8908.5 4027.1 8915.29 4034.34 8920.35 4047.81Z" fill="#AA3F3A"/>
<path d="M8908.29 4251.69H8856.84C8839.6 4248.19 8826.88 4241.76 8809.2 4238.78C8782.36 4234.24 8770 4248.43 8767.54 4251.69C8767.21 4252.11 8767.07 4252.35 8767.07 4252.35H8548.5C8543 4242.23 8548.28 4218.78 8553.45 4201.52C8560.09 4193.91 8561.96 4234.57 8565.63 4241.05C8569.29 4247.53 8743.93 4243.42 8754.01 4233.96C8764.1 4224.5 8794.35 4207.96 8836.52 4220.96C8873.23 4232.25 8927.32 4203.27 8940.71 4195.56C8945.81 4214.9 8950.09 4228.61 8950.09 4228.61C8950.09 4228.61 8952.55 4244.55 8908.29 4251.69Z" fill="#AA3F3A"/>
<path d="M9365.14 4251.65H9310.88C9292.7 4247.96 9279.28 4241.18 9260.64 4238.04C9232.33 4233.25 9219.3 4248.21 9216.71 4251.65C9216.36 4252.1 9216.2 4252.35 9216.2 4252.35H8985.71C8979.91 4241.68 8985.48 4216.95 8990.93 4198.75C8994.6 4186.38 9002.61 4177.01 9012.51 4173.32C9036.95 4164.19 9085.14 4156.06 9129.27 4104.55C9154.1 4075.63 9249.16 3998.2 9249.16 3998.2L9249.66 3998.05C9251.75 3998.1 9261.69 4002.03 9304.92 4049.11C9327.28 4073.39 9365.37 4014.8 9365.37 4014.8C9365.37 4014.8 9372.52 4022.43 9377.86 4036.64C9382.15 4047.86 9385.29 4063.27 9382.81 4082.27C9379.37 4109.04 9390.47 4158.81 9399.32 4192.46C9404.7 4212.86 9409.22 4227.32 9409.22 4227.32C9409.22 4227.32 9411.82 4244.12 9365.14 4251.65Z" fill="#2C3A64"/>
<path d="M9377.86 4036.64C9364.9 4048.41 9337.56 4071.6 9319.42 4074.63C9294.94 4078.77 9249.15 3998.2 9249.15 3998.2L9249.66 3998.05C9251.74 3998.1 9261.68 4002.03 9304.92 4049.11C9327.27 4073.39 9365.37 4014.8 9365.37 4014.8C9365.37 4014.8 9372.52 4022.43 9377.86 4036.64Z" fill="#AA3F3A"/>
<path d="M9365.14 4251.65H9310.88C9292.7 4247.96 9279.28 4241.18 9260.64 4238.04C9232.33 4233.25 9219.3 4248.21 9216.71 4251.65C9216.36 4252.1 9216.2 4252.35 9216.2 4252.35H8985.71C8979.91 4241.68 8985.48 4216.95 8990.93 4198.75C8997.93 4190.72 8999.9 4233.6 9003.77 4240.43C9007.64 4247.27 9191.8 4242.92 9202.44 4232.96C9213.07 4222.98 9244.98 4205.53 9289.45 4219.24C9328.17 4231.16 9385.21 4200.59 9399.33 4192.46C9404.7 4212.86 9409.23 4227.32 9409.23 4227.32C9409.23 4227.32 9411.82 4244.12 9365.14 4251.65Z" fill="#AA3F3A"/>
<path d="M9783.94 2615.73C9763.68 2518.35 9683.65 2461.4 9605.17 2488.54C9585.09 2495.48 9567.08 2507.28 9551.7 2522.59L9520.79 2551.51C9520.79 2551.51 9488.15 2658.22 9499.75 2714C9520.01 2811.38 9696.48 2841.15 9696.48 2841.15L9731.52 2807.68L9731.5 2807.65C9776.56 2763.17 9799.07 2688.47 9783.94 2615.73Z" fill="#942E2A"/>
<path d="M9470.44 2741.51C9450.18 2644.12 9497.38 2543.18 9575.85 2516.05C9654.33 2488.91 9734.37 2545.86 9754.62 2643.24C9774.88 2740.62 9727.68 2841.57 9649.21 2868.7C9570.73 2895.84 9490.7 2838.89 9470.44 2741.51Z" fill="#B84C42"/>
<path d="M9659.15 2668.83C9652.58 2637.22 9626.59 2618.73 9601.11 2627.54C9594.59 2629.79 9588.74 2633.62 9583.75 2638.59L9573.72 2647.98C9573.72 2647.98 9563.12 2682.63 9566.89 2700.74C9573.46 2732.35 9630.76 2742.02 9630.76 2742.02L9642.13 2731.15L9642.13 2731.14C9656.75 2716.7 9664.06 2692.45 9659.15 2668.83Z" fill="#942E2A"/>
<path d="M9649.64 2677.76C9643.06 2646.15 9617.07 2627.66 9591.6 2636.47C9566.12 2645.28 9550.8 2678.05 9557.37 2709.67C9563.95 2741.28 9589.93 2759.77 9615.41 2750.96C9640.89 2742.15 9656.21 2709.38 9649.64 2677.76Z" fill="#AD423E"/>
<path d="M10759.8 3930.31C10742.3 3920.46 10724.1 3915.61 10706.3 3915.24L10671.2 3913.17C10671.2 3913.17 10600.3 3965.7 10583.8 4014.35C10555.1 4099.29 10668.6 4251.16 10668.6 4251.16L10708.7 4253.02V4252.97C10760.8 4254.34 10810.2 4217.31 10831.7 4153.86C10860.4 4068.93 10828.3 3968.84 10759.8 3930.31Z" fill="#942E2A"/>
<path d="M10726.5 3928.4C10658.1 3889.88 10579.3 3927.5 10550.5 4012.44C10521.8 4097.39 10553.9 4197.48 10622.4 4236C10690.8 4274.52 10769.6 4236.9 10798.4 4151.96C10827.1 4067.02 10795 3966.93 10726.5 3928.4Z" fill="#B84C42"/>
<path d="M10677.7 4045.17C10669.4 4041.62 10414.6 4003.87 10414.6 4003.87L10415 4099.31L10673.9 4117.22C10673.9 4117.22 10686.1 4118.2 10694.8 4101.25C10703.4 4084.54 10698.3 4053.94 10677.7 4045.17Z" fill="#882529"/>
<path d="M10546 3902.69C10527 3891.96 10507.2 3886.7 10487.8 3886.3L10449.6 3884.03L10449.6 3891.93C10408.3 3905.19 10372.5 3941.19 10354.6 3994.12C10323.3 4086.52 10358.3 4195.4 10432.7 4237.31C10437.4 4239.94 10442.1 4242.24 10446.9 4244.22L10446.8 4251.73L10490.4 4253.75L10490.4 4253.7C10547.1 4255.19 10600.9 4214.9 10624.2 4145.89C10655.5 4053.48 10620.5 3944.6 10546 3902.69Z" fill="#942E2A"/>
<path d="M10509.8 3900.61C10435.4 3858.7 10349.6 3899.63 10318.3 3992.03C10287.1 4084.44 10322.1 4193.32 10396.5 4235.23C10471 4277.14 10556.7 4236.21 10588 4143.81C10619.3 4051.4 10584.3 3942.52 10509.8 3900.61Z" fill="#B84C42"/>
<path d="M10475.6 4008.06C10469.4 4004.58 10463 4002.87 10456.7 4002.74L10444.3 4002.01C10444.3 4002.01 10419.3 4020.56 10413.5 4037.74C10403.3 4067.74 10443.4 4121.38 10443.4 4121.38L10457.6 4122.04V4122.02C10476 4122.5 10493.4 4109.43 10501 4087.02C10511.2 4057.02 10499.8 4021.67 10475.6 4008.06Z" fill="#942E2A"/>
<path d="M10463.9 4007.39C10439.7 3993.78 10411.9 4007.07 10401.7 4037.07C10391.5 4067.08 10402.9 4102.42 10427.1 4116.03C10451.3 4129.64 10479.1 4116.35 10489.2 4086.35C10499.4 4056.35 10488 4021 10463.9 4007.39Z" fill="#B84C42"/>
<path d="M3635.3 2524.94L3451.95 2508.38C3424.81 2505.92 3401.13 2532.46 3399.22 2567.46C3399.22 2567.46 3398.28 2607.96 3396.56 2670.57C3396.1 2686.77 3395.58 2704.03 3394.97 2722.91C3389.52 2908.02 3380.32 3208.59 3373.36 3336.75C3365.83 3467.55 3344 3761.03 3328.46 3962C3327.02 3980.8 3325.63 3998.54 3324.28 4015.73C3317.28 4106.01 3312.27 4167.24 3312.27 4167.24C3310.36 4202.24 3330.95 4232.78 3358.09 4235.23L3541.44 4251.8C3568.58 4254.25 3592.27 4227.71 3594.17 4192.71C3594.17 4192.71 3595.39 4131.68 3596.96 4040.92C3597.48 4023.64 3597.65 4005.26 3597.86 3985.8C3602.12 3783.81 3608.92 3488.98 3616 3358.67C3623 3229.98 3649.68 2932.08 3666.82 2748.03C3668.29 2728.68 3670.12 2710.45 3671.42 2694.33C3677.29 2632.63 3681.13 2592.94 3681.13 2592.94C3683.03 2557.93 3662.44 2527.39 3635.3 2524.94Z" fill="#D57912"/>
<path d="M3555.11 2517.7L3451.95 2508.38C3424.81 2505.92 3401.12 2532.46 3399.22 2567.46C3399.22 2567.46 3398.28 2607.96 3396.56 2670.57C3396.1 2686.77 3395.58 2704.03 3394.97 2722.91C3389.52 2908.02 3380.32 3208.59 3373.35 3336.75C3365.82 3467.55 3343.99 3761.03 3328.46 3962C3327.01 3980.8 3325.63 3998.54 3324.28 4015.73C3317.27 4106.01 3312.26 4167.24 3312.26 4167.24C3310.36 4202.24 3330.95 4232.78 3358.09 4235.23L3461.25 4244.55C3488.4 4247 3512.08 4220.46 3513.98 4185.47C3513.98 4185.47 3515.2 4124.43 3516.78 4033.67C3517.29 4016.4 3517.45 3998.02 3517.67 3978.56C3521.94 3776.57 3528.73 3481.73 3535.81 3351.43C3542.81 3222.74 3569.5 2924.83 3586.63 2740.78C3588.1 2721.43 3589.93 2703.2 3591.23 2687.09C3597.11 2625.39 3600.94 2585.69 3600.94 2585.69C3602.84 2550.69 3582.26 2520.15 3555.11 2517.7Z" fill="#E69D43"/>
<path d="M3401.62 2669.95C3399.95 2669.8 3398.28 2669.65 3396.56 2670.57C3396.1 2686.77 3395.58 2704.03 3394.96 2722.92C3396.19 2723.57 3397.44 2723.68 3398.69 2723.79L3666.81 2748.02C3668.29 2728.68 3670.12 2710.44 3671.41 2694.33L3401.62 2669.95Z" fill="#739CF3"/>
<path d="M3328.45 3962L3324.27 4015.74C3325.08 4016.35 3325.92 4016.43 3326.75 4016.5L3596.96 4040.92C3597.48 4023.65 3597.64 4005.26 3597.86 3985.8L3329.74 3961.58C3329.32 3961.54 3328.9 3961.5 3328.45 3962Z" fill="#739CF3"/>
<path d="M3815.92 1971.23C3813.03 1971.23 3810.69 1974.25 3810.69 1977.98V2716.3C3810.69 2720.03 3813.03 2723.05 3815.92 2723.05C3818.81 2723.05 3821.15 2720.03 3821.15 2716.3V1977.98C3821.15 1974.25 3818.81 1971.23 3815.92 1971.23Z" fill="#ADCBFF"/>
<path d="M3813.52 2705.62C3802.37 2705.62 3793.24 2717.39 3793.24 2731.77V2821.16C3793.24 2835.55 3802.37 2847.31 3813.52 2847.31C3824.67 2847.31 3833.8 2835.55 3833.8 2821.16V2731.77C3833.8 2717.38 3824.67 2705.62 3813.52 2705.62Z" fill="#E69D43"/>
<path d="M3873.48 3884.43C3862.33 3884.43 3853.2 3896.19 3853.2 3910.57V3999.97C3853.2 4014.35 3862.33 4026.12 3873.48 4026.12C3884.64 4026.12 3893.76 4014.35 3893.76 3999.97V3910.57C3893.76 3896.19 3884.64 3884.43 3873.48 3884.43Z" fill="#E69D43"/>
</svg>
